<svg width="34" height="28" viewBox="0 0 34 28" fill="none" xmlns="http://www.w3.org/2000/svg">
<path d="M32.5833 0H1.41667C1.04094 0 0.680609 0.1475 0.414932 0.41005C0.149256 0.672601 0 1.0287 0 1.4L0 26.6C0 26.9713 0.149256 27.3274 0.414932 27.59C0.680609 27.8525 1.04094 28 1.41667 28H32.5833C32.9591 28 33.3194 27.8525 33.5851 27.59C33.8507 27.3274 34 26.9713 34 26.6V1.4C34 1.0287 33.8507 0.672601 33.5851 0.41005C33.3194 0.1475 32.9591 0 32.5833 0ZM31.1667 25.2H28.3333V23.8H21.25V25.2H2.83333V2.8H31.1667V25.2ZM14.5775 10.794C14.5775 10.1591 14.8327 9.55015 15.287 9.10119C15.7413 8.65222 16.3575 8.4 17 8.4C18.3458 8.4 19.4225 9.478 19.4225 10.794C19.4225 12.124 18.3458 13.202 17 13.202C15.6542 13.202 14.5775 12.124 14.5775 10.794ZM8.08917 13.006C8.08917 12.012 8.91083 11.2 9.91667 11.2C10.4013 11.2 10.8662 11.3903 11.2089 11.729C11.5516 12.0677 11.7442 12.527 11.7442 13.006C11.7442 14 10.9225 14.798 9.91667 14.798C8.91083 14.798 8.08917 14 8.08917 13.006ZM22.2558 13.006C22.2558 12.527 22.4484 12.0677 22.7911 11.729C23.1338 11.3903 23.5986 11.2 24.0833 11.2C24.568 11.2 25.0328 11.3903 25.3756 11.729C25.7183 12.0677 25.9108 12.527 25.9108 13.006C25.9108 14 25.0892 14.798 24.0833 14.798C23.0775 14.798 22.2558 14 22.2558 13.006ZM28.3333 18.396V19.6H5.66667V18.396C5.66667 17.08 7.8625 16.002 9.91667 16.002C10.6958 16.002 11.4892 16.156 12.1833 16.422C13.2458 15.456 15.1583 14.798 17 14.798C18.8417 14.798 20.7542 15.456 21.8167 16.422C22.5108 16.156 23.3042 16.002 24.0833 16.002C26.1375 16.002 28.3333 17.08 28.3333 18.396Z" fill="#FFCD00"/>
</svg>
