<svg width="28" height="28" viewBox="0 0 28 28" fill="none" xmlns="http://www.w3.org/2000/svg">
<path d="M21.586 11L19 8.414V4H21V7.586L23 9.586L21.586 11Z" fill="#B5ED3D"/>
<path d="M20 16C18.4178 16 16.871 15.5308 15.5554 14.6518C14.2398 13.7727 13.2145 12.5233 12.609 11.0615C12.0035 9.59966 11.845 7.99113 12.1537 6.43928C12.4624 4.88743 13.2243 3.46197 14.3431 2.34315C15.462 1.22433 16.8874 0.462403 18.4393 0.153721C19.9911 -0.15496 21.5997 0.00346625 23.0615 0.608967C24.5233 1.21447 25.7727 2.23985 26.6518 3.55544C27.5308 4.87103 28 6.41775 28 8C27.9974 10.1209 27.1537 12.1542 25.6539 13.6539C24.1542 15.1537 22.1209 15.9974 20 16ZM20 2C18.8133 2 17.6533 2.3519 16.6666 3.01119C15.6799 3.67047 14.9109 4.60755 14.4567 5.7039C14.0026 6.80026 13.8838 8.00666 14.1153 9.17055C14.3468 10.3344 14.9182 11.4035 15.7574 12.2426C16.5965 13.0818 17.6656 13.6532 18.8295 13.8847C19.9933 14.1162 21.1997 13.9974 22.2961 13.5433C23.3925 13.0892 24.3295 12.3201 24.9888 11.3334C25.6481 10.3467 26 9.18669 26 8C25.9982 6.40927 25.3654 4.88423 24.2406 3.75941C23.1158 2.63459 21.5907 2.00186 20 2Z" fill="#B5ED3D"/>
<path d="M6.63 16L13.63 22H28V20H14.37L7.37 14H2V0H0V26C0.000529477 26.5303 0.211413 27.0387 0.586371 27.4136C0.961329 27.7886 1.46973 27.9995 2 28H28V26H2V16H6.63Z" fill="#B5ED3D"/>
</svg>
