<svg width="98" height="84" viewBox="0 0 98 84" fill="none" xmlns="http://www.w3.org/2000/svg">
<path d="M81.856 61.3142C81.856 61.3142 93.6094 30.6548 87.5203 25.9792C81.4312 21.3035 55.8936 23.1916 54.4945 24.862C53.0954 26.5324 44.8577 63.4379 44.8577 63.4379L81.856 61.3142Z" fill="#231F20"/>
<path d="M44.8398 63.6235C44.8143 63.6233 44.789 63.6178 44.7657 63.6074C44.7423 63.5969 44.7214 63.5818 44.7042 63.5629C44.6864 63.542 44.6739 63.5172 44.6677 63.4905C44.6615 63.4638 44.6617 63.436 44.6685 63.4094C45.004 61.8996 52.9455 26.4396 54.3589 24.755C55.1334 23.8305 61.9506 22.9704 69.246 22.874C73.529 22.8169 83.9118 22.9918 87.631 25.8436C90.2186 27.828 90.0544 34.4096 87.1455 45.4456C85.004 53.6084 82.0523 61.3 82.0237 61.3749C82.0118 61.4074 81.9905 61.4355 81.9625 61.4558C81.9346 61.4762 81.9012 61.4878 81.8667 61.4892L44.8505 63.6307L44.8398 63.6235ZM70.5952 23.2202H69.2531C61.7578 23.3201 55.244 24.2446 54.6194 24.9763C53.5487 26.2647 47.9236 50.4354 45.054 63.2488L81.7204 61.1358C82.4735 59.1406 93.1418 30.5192 87.4025 26.1184C84.9862 24.266 78.8935 23.2202 70.5952 23.2202Z" fill="#231F20"/>
<path d="M34.1323 34.8235L28.8356 52.6017C28.8356 52.6017 39.7609 54.0115 39.7609 53.6082C39.7609 53.2049 41.9024 34.0454 41.9024 34.0454L34.1323 34.8235Z" fill="white"/>
<path d="M39.2112 53.8404C37.3659 53.8404 32.1299 53.2051 28.8141 52.7696C28.7885 52.766 28.764 52.757 28.7422 52.7431C28.7204 52.7293 28.7017 52.7109 28.6876 52.6893C28.6734 52.6677 28.664 52.6433 28.6599 52.6178C28.6559 52.5922 28.6574 52.5661 28.6642 52.5412L33.9609 34.763C33.9707 34.7287 33.9906 34.6981 34.0179 34.6752C34.0453 34.6523 34.0789 34.6382 34.1144 34.6345L41.8881 33.8565C41.9144 33.854 41.9409 33.8576 41.9656 33.8668C41.9903 33.8761 42.0127 33.8909 42.0309 33.91C42.05 33.928 42.0646 33.9504 42.0733 33.9753C42.082 34.0001 42.0846 34.0267 42.0808 34.0528C41.342 40.6558 39.9393 53.2372 39.9393 53.5977C39.9361 53.6561 39.9105 53.711 39.8679 53.7512C39.6586 53.8304 39.434 53.8609 39.2112 53.8404ZM29.0533 52.452C32.8509 52.9374 38.7472 53.612 39.5753 53.4942C39.7109 51.9523 41.4491 36.3906 41.6882 34.2455L34.2571 34.9915L29.0533 52.452Z" fill="#231F20"/>
<path d="M24.0921 30.4085C24.1385 30.4585 26.0194 29.9553 26.9903 31.1224C27.9611 32.2895 26.7012 33.3317 23.6352 32.7285C20.5693 32.1253 24.0921 30.4085 24.0921 30.4085Z" fill="white"/>
<path d="M25.2521 33.0818C24.6969 33.0762 24.1436 33.0177 23.5995 32.9069C22.7144 32.732 22.2575 32.4465 22.204 32.0289C22.1005 31.2222 23.6923 30.4049 24.0136 30.2443C24.0506 30.2318 24.0907 30.2318 24.1278 30.2443H24.2456C24.7453 30.1836 26.2657 29.9909 27.1295 31.0259C27.515 31.4828 27.597 31.9504 27.3686 32.343C27.0724 32.8105 26.305 33.0818 25.2521 33.0818ZM24.1314 30.5834C23.4354 30.9403 22.5181 31.5685 22.568 31.9646C22.568 32.0967 22.7536 32.3465 23.6709 32.5286C25.7446 32.9355 26.7868 32.5571 27.051 32.111C27.114 31.9596 27.1283 31.7922 27.0919 31.6323C27.0554 31.4724 26.97 31.3278 26.8475 31.2187C26.1123 30.3407 24.7881 30.5048 24.292 30.5691C24.2242 30.5834 24.1742 30.5834 24.1314 30.5834Z" fill="#231F20"/>
<path d="M19.3772 26.6787C19.3772 26.6787 18.9917 26.2361 19.2344 25.9256C19.289 25.8625 19.3578 25.8134 19.4352 25.7823C19.5126 25.7512 19.5962 25.7389 19.6793 25.7466C19.7623 25.7543 19.8424 25.7817 19.9127 25.8264C19.9831 25.8712 20.0417 25.9321 20.0839 26.0041C20.0839 26.0041 19.4771 26.2218 19.3772 26.6787Z" fill="white"/>
<path d="M19.3772 26.8607C19.351 26.861 19.3251 26.8557 19.3011 26.8453C19.2771 26.8348 19.2556 26.8194 19.238 26.8C19.0595 26.593 18.824 26.1504 19.0917 25.8149C19.1515 25.7363 19.2287 25.6725 19.3172 25.6285C19.4057 25.5846 19.5032 25.5617 19.602 25.5615C19.7237 25.5636 19.8432 25.594 19.951 25.6504C20.0588 25.7068 20.152 25.7876 20.2231 25.8863C20.2426 25.909 20.2562 25.9363 20.2624 25.9656C20.2686 25.9949 20.2674 26.0254 20.2588 26.0541C20.2513 26.0826 20.237 26.1089 20.2171 26.1306C20.1972 26.1524 20.1723 26.169 20.1446 26.179C20.0018 26.229 19.6199 26.4288 19.5556 26.7179C19.5488 26.7511 19.5328 26.7818 19.5094 26.8064C19.4861 26.8309 19.4564 26.8485 19.4236 26.8571L19.3772 26.8607ZM19.6092 25.9292C19.5659 25.9298 19.5232 25.9401 19.4843 25.9592C19.4454 25.9783 19.4113 26.0059 19.3843 26.0398C19.364 26.0789 19.3534 26.1224 19.3534 26.1665C19.3534 26.2106 19.364 26.2541 19.3843 26.2932C19.4918 26.1613 19.6225 26.05 19.7698 25.9648C19.7205 25.9432 19.6661 25.9358 19.6128 25.9434L19.6092 25.9292Z" fill="#231F20"/>
<path d="M20.2195 25.9863C20.0072 26.0036 19.8066 26.0907 19.649 26.234C19.4914 26.3774 19.3858 26.5689 19.3486 26.7787L27.0046 36.7403C27.0518 36.263 27.2579 35.8153 27.5899 35.469C27.922 35.1228 28.3606 34.898 28.8356 34.8308L20.2195 25.9863Z" fill="white"/>
<path d="M27.001 36.9224C26.9733 36.9221 26.9461 36.9156 26.9214 36.9032C26.8966 36.8908 26.875 36.873 26.8582 36.851L19.2023 26.8894C19.185 26.8669 19.1731 26.8407 19.1675 26.8128C19.162 26.785 19.1629 26.7562 19.1702 26.7288C19.2206 26.4811 19.3502 26.2566 19.5395 26.0892C19.7289 25.9217 19.9675 25.8205 20.2195 25.8008C20.2442 25.801 20.2686 25.8062 20.2913 25.816C20.314 25.8258 20.3345 25.8401 20.3516 25.8579L28.9676 34.7024C28.9915 34.7261 29.0083 34.7561 29.0159 34.789C29.0234 34.8218 29.0216 34.8561 29.0104 34.888C29.0004 34.9199 28.9818 34.9485 28.9566 34.9705C28.9314 34.9925 28.9007 35.0072 28.8677 35.0129C28.4326 35.0724 28.0302 35.2765 27.7253 35.5925C27.4204 35.9084 27.2306 36.3178 27.1866 36.7547C27.1836 36.7917 27.1693 36.827 27.1457 36.8557C27.1221 36.8844 27.0903 36.9052 27.0545 36.9153L27.001 36.9224ZM19.5521 26.743L26.9082 36.3121C27.0118 35.9355 27.2102 35.5917 27.4845 35.3136C27.7588 35.0355 28.0999 34.8325 28.4751 34.7238L20.1517 26.1791C20.0093 26.2084 19.8779 26.2767 19.7721 26.3762C19.6662 26.4758 19.59 26.6028 19.5521 26.743Z" fill="#231F20"/>
<path d="M27.0045 36.7403L29.6172 38.0966L29.942 37.7932L28.8355 34.8307C28.8355 34.8307 26.8011 34.6273 27.0045 36.7403Z" fill="white"/>
<path d="M29.6172 38.2785C29.5872 38.279 29.5577 38.2716 29.5315 38.2571L26.9189 36.9008C26.8911 36.887 26.8674 36.8662 26.8499 36.8406C26.8324 36.815 26.8217 36.7854 26.8189 36.7545C26.7693 36.4705 26.7849 36.1789 26.8647 35.9019C26.9444 35.6248 27.0863 35.3696 27.2794 35.1555C27.4948 34.9703 27.7449 34.8297 28.0151 34.7421C28.2853 34.6545 28.5703 34.6215 28.8534 34.6451C28.8884 34.6484 28.9217 34.6615 28.9495 34.683C28.9773 34.7045 28.9984 34.7334 29.0104 34.7664L30.1133 37.7289C30.1266 37.763 30.1292 37.8003 30.1209 37.836C30.1127 37.8716 30.0938 37.904 30.0669 37.9287L29.7421 38.2321C29.7075 38.2622 29.6631 38.2787 29.6172 38.2785ZM27.1794 36.6224L29.5851 37.8716L29.7278 37.7431L28.707 35.0091C28.2802 34.997 27.8637 35.1417 27.5363 35.416C27.393 35.5792 27.2868 35.7717 27.2252 35.98C27.1636 36.1883 27.148 36.4075 27.1794 36.6224Z" fill="#231F20"/>
<path d="M29.6172 38.0966L30.1169 38.632L30.3524 38.3643L29.942 37.7932L29.6172 38.0966Z" fill="white"/>
<path d="M30.1169 38.8174C30.0918 38.8176 30.0669 38.8123 30.0441 38.8018C30.0213 38.7913 30.001 38.7759 29.9848 38.7567L29.4816 38.2214C29.4491 38.1851 29.4313 38.138 29.4316 38.0893C29.4343 38.0402 29.4561 37.9941 29.4923 37.9608L29.8171 37.6574C29.8364 37.6399 29.8592 37.6267 29.8839 37.6186C29.9087 37.6105 29.9349 37.6077 29.9608 37.6104C29.9868 37.6131 30.0118 37.6212 30.0344 37.6342C30.057 37.6472 30.0766 37.6649 30.0919 37.686L30.5023 38.257C30.5284 38.2894 30.5426 38.3297 30.5426 38.3713C30.5426 38.4128 30.5284 38.4531 30.5023 38.4855L30.2668 38.7532C30.2504 38.7733 30.2297 38.7895 30.2062 38.8006C30.1827 38.8117 30.1571 38.8174 30.1311 38.8174H30.1169ZM29.8777 38.1036L30.1133 38.357L29.9099 38.075L29.8777 38.1036Z" fill="#231F20"/>
<path d="M24.5775 37.522C24.9987 36.669 26.0551 34.8594 26.2978 34.0742C26.9688 31.9326 23.0392 29.9268 21.7685 29.9268C20.4979 29.9268 17.8424 34.3668 17.8424 36.7404C17.8424 39.1139 26.6405 57.2882 26.6405 57.2882L35.0816 53.4264L24.5775 37.522Z" fill="white"/>
<path d="M26.6512 57.4739C26.6169 57.4739 26.5832 57.4642 26.5542 57.4458C26.5251 57.4275 26.5018 57.4014 26.487 57.3704C26.1301 56.628 17.6675 39.1246 17.6675 36.7404C17.6675 34.3562 20.3516 29.7412 21.7685 29.7412C22.7465 29.7412 25.0201 30.7834 26.0516 32.1683C26.2799 32.4345 26.4394 32.7528 26.5159 33.095C26.5925 33.4373 26.5838 33.7932 26.4906 34.1313C26.1503 34.9729 25.752 35.7898 25.2985 36.5762C25.1093 36.9331 24.9416 37.2544 24.8059 37.5078L35.2601 53.3193C35.2747 53.3418 35.2845 53.367 35.2888 53.3934C35.2931 53.4199 35.2918 53.4469 35.2851 53.4728C35.2774 53.4978 35.2646 53.5209 35.2473 53.5406C35.2301 53.5603 35.2089 53.5761 35.1852 53.587L26.7404 57.456C26.7136 57.4721 26.6821 57.4784 26.6512 57.4739ZM21.7685 30.1088C20.6514 30.1088 18.0387 34.3919 18.0387 36.7404C18.0387 38.9248 25.866 55.2324 26.7369 57.0491L34.8211 53.3443L24.424 37.6398C24.4084 37.6114 24.4002 37.5795 24.4002 37.547C24.4002 37.5146 24.4084 37.4827 24.424 37.4542C24.5597 37.183 24.756 36.8154 24.9701 36.4156C25.4115 35.6494 25.8003 34.854 26.1337 34.035C26.209 33.7521 26.2135 33.455 26.1469 33.1699C26.0803 32.8848 25.9446 32.6205 25.7518 32.4003C24.756 31.0475 22.5895 30.1088 21.7685 30.1088Z" fill="#231F20"/>
<path d="M69.4887 41.1198L79.8929 38.4679C79.536 37.9646 75.3386 24.6408 70.9128 22.46C67.0403 19.8902 57.8567 18.177 49.7439 18.7587C49.7439 18.7587 47.6024 18.6802 43.8476 20.1686C34.7033 23.802 32.9401 36.4548 32.9401 36.4548L40.0785 38.9212C40.0785 38.9212 38.7151 55.2859 37.4266 63.8413C37.4266 63.8413 53.2096 66.9287 76.1881 63.1275C76.206 63.1203 69.5315 43.5397 69.4887 41.1198Z" fill="#B5ED3D"/>
<path d="M68.6321 22.8275C67.2544 24.2552 66.1801 25.9684 64.6596 27.314C61.3831 30.2122 57.0965 32.5072 52.6029 32.2288C47.3062 31.9004 42.7269 28.2812 41.5776 23.0095C40.8638 19.7045 41.6062 16.6349 44.1617 14.3007C45.9285 12.6874 48.1913 11.7023 50.5042 11.0884C56.6468 9.44302 63.5389 10.3175 68.782 13.9224C69.6387 14.4497 70.3619 15.1679 70.895 16.021C72.2049 18.3946 70.6987 20.8359 68.9998 22.467C68.8855 22.5777 68.7642 22.7026 68.6321 22.8275Z" fill="#B5ED3D"/>
<path d="M50.5613 26.568C50.5077 26.568 49.5226 27.7672 49.4727 27.7851C50.033 29.898 50.6255 32.6499 53.0169 32.9212C57.8674 33.4744 58.6027 27.007 59.5164 23.9553C56.1578 24.8976 53.7878 25.2759 50.5613 26.568Z" fill="#231F20"/>
<path d="M53.5844 33.1354C53.3888 33.1339 53.1934 33.122 52.999 33.0997C50.6112 32.8285 49.9367 30.2444 49.3906 28.1778L49.2978 27.8209C49.2891 27.7858 49.2914 27.749 49.3041 27.7152C49.3168 27.6815 49.3395 27.6523 49.3692 27.6317C49.4263 27.5782 49.6868 27.2748 49.876 27.0535C50.4292 26.4182 50.4363 26.4146 50.4935 26.3896C52.4691 25.6259 54.4968 25.0044 56.5611 24.5301C57.4712 24.3017 58.4099 24.0661 59.4521 23.7734C59.4828 23.7649 59.5152 23.7647 59.5459 23.7728C59.5767 23.781 59.6047 23.7972 59.627 23.8198C59.6484 23.8429 59.6636 23.8711 59.6711 23.9017C59.6786 23.9323 59.6782 23.9643 59.6699 23.9947C59.5342 24.448 59.4022 24.9834 59.2594 25.5509C58.5206 28.6061 57.3891 33.1319 53.5844 33.1354ZM49.6583 27.8423L49.7225 28.0886C50.2686 30.1587 50.8825 32.5037 53.0276 32.7285C57.0001 33.1818 58.1101 28.7168 58.9239 25.4545C59.0346 25.0084 59.1416 24.5801 59.2487 24.1946C58.3243 24.448 57.4641 24.6622 56.6539 24.8692C54.6084 25.3335 52.5995 25.9467 50.6434 26.7037C50.572 26.7751 50.3221 27.0607 50.1365 27.2784C49.8867 27.5996 49.7475 27.7566 49.669 27.8423H49.6583Z" fill="#231F20"/>
<path d="M55.2583 1.67282C54.5445 1.64426 54.0876 1.95478 53.4737 2.17607C52.278 2.59724 51.7212 1.59786 50.6933 1.06605C49.0749 0.224672 47.2152 -0.0306446 45.4299 0.343455C43.6447 0.717554 42.0439 1.69801 40.8994 3.11834C40.1873 3.96182 39.726 4.98819 39.5681 6.08078C39.4182 7.31572 39.7644 8.57922 39.5503 9.79988C39.4194 10.5009 39.1122 11.1571 38.6576 11.7066C38.203 12.2561 37.616 12.6808 36.9519 12.9408C38.0946 13.029 39.2439 12.9203 40.3498 12.6195C40.0319 12.9974 39.6368 13.3027 39.1911 13.5151C38.7454 13.7275 38.2593 13.842 37.7657 13.8509C38.9039 14.7261 40.3025 15.1948 41.7382 15.1822L39.2219 15.7712C41.3634 17.1453 43.9725 17.5558 46.4959 17.4415C51.5214 17.181 59.9375 15.1251 59.7912 8.61491C59.7091 6.12004 58.3385 1.81559 55.2583 1.67282Z" fill="white"/>
<path d="M45.6322 17.6522C43.7084 17.6522 41.2456 17.2953 39.1113 15.9318C39.082 15.9123 39.059 15.8847 39.0451 15.8524C39.0311 15.8201 39.0268 15.7845 39.0327 15.7498C39.0401 15.7158 39.0566 15.6845 39.0805 15.6594C39.1044 15.6342 39.1348 15.6161 39.1684 15.607L40.5675 15.2822C39.5025 15.1008 38.4978 14.6622 37.6408 14.0045C37.6108 13.982 37.5887 13.9506 37.5775 13.9149C37.5663 13.8791 37.5667 13.8408 37.5785 13.8052C37.5904 13.7697 37.6131 13.7388 37.6435 13.7169C37.6739 13.695 37.7104 13.6832 37.7478 13.6832C38.4807 13.6712 39.1883 13.4136 39.7573 12.9515C38.8258 13.1447 37.8717 13.2048 36.9234 13.13C36.8832 13.1263 36.8454 13.1092 36.8163 13.0813C36.7871 13.0534 36.7682 13.0165 36.7627 12.9765C36.7562 12.9361 36.7641 12.8947 36.7849 12.8595C36.8058 12.8242 36.8384 12.7975 36.8769 12.7838C37.515 12.5383 38.0795 12.1336 38.5169 11.6081C38.9542 11.0827 39.2498 10.4541 39.3754 9.78209C39.4612 9.14053 39.4684 8.49089 39.3968 7.84759C39.341 7.25403 39.341 6.65654 39.3968 6.06299C39.5592 4.9365 40.034 3.87806 40.7674 3.00775C41.9378 1.55535 43.5749 0.553013 45.4007 0.171075C47.2264 -0.210862 49.1281 0.0511669 50.7826 0.912632C51.0866 1.07868 51.3757 1.27096 51.6463 1.48727C52.2245 1.92628 52.6814 2.2725 53.4309 2.01195C53.5915 1.95484 53.7414 1.89059 53.8878 1.82992C54.3233 1.60869 54.8055 1.49487 55.294 1.49798C58.3849 1.63361 59.934 5.82385 59.9839 8.61496C60.0482 11.5738 58.4313 13.9045 55.1762 15.5356C51.9211 17.1668 48.0378 17.5451 46.5209 17.6236C46.2211 17.645 45.932 17.6522 45.6322 17.6522ZM39.6716 15.8676C41.9773 17.206 44.6221 17.3845 46.4745 17.2953C47.9593 17.2167 51.7569 16.8634 54.9871 15.243C58.1101 13.6797 59.6591 11.4632 59.5985 8.65065C59.5378 5.99517 58.1137 2.00838 55.2512 1.86918C54.8158 1.87222 54.387 1.97606 53.9984 2.17256C53.8449 2.23681 53.6879 2.30462 53.5201 2.36173C52.5957 2.68652 52.0175 2.24751 51.4072 1.78352C51.1535 1.58031 50.8824 1.39996 50.597 1.24457C49.016 0.419755 47.198 0.168502 45.4525 0.533597C43.7071 0.898692 42.1422 1.85756 41.0244 3.24689C40.3357 4.05986 39.887 5.0486 39.7287 6.10225C39.6752 6.67087 39.6752 7.24327 39.7287 7.81189C39.8013 8.48394 39.7917 9.16233 39.7002 9.83206C39.5874 10.4435 39.3454 11.0237 38.9902 11.534C38.635 12.0443 38.1749 12.4728 37.6408 12.7909C38.5308 12.7898 39.4166 12.6697 40.2748 12.434C40.3118 12.4233 40.3512 12.4248 40.3872 12.4383C40.4232 12.4518 40.4539 12.4766 40.4747 12.509C40.4965 12.5397 40.5082 12.5765 40.5082 12.6142C40.5082 12.652 40.4965 12.6888 40.4747 12.7195C39.9098 13.3916 39.1217 13.8376 38.2547 13.9759C39.2869 14.649 40.4952 15.0016 41.7275 14.9896C41.7716 14.9884 41.8144 15.004 41.8475 15.0331C41.8806 15.0622 41.9015 15.1027 41.9059 15.1466C41.9116 15.1903 41.9008 15.2345 41.8758 15.2707C41.8507 15.307 41.8132 15.3327 41.7703 15.3429L39.6716 15.8676Z" fill="#231F20"/>
<path d="M49.1157 21.639L49.4727 27.7852C49.4727 27.7852 52.2816 30.9974 55.8972 29.0237C59.5128 27.0499 59.3736 23.9197 59.3736 23.9197L57.0001 12.3805C57.0001 12.3805 53.72 11.6238 52.8848 5.16357C50.0867 7.37905 46.7426 8.79834 43.2051 9.27172C43.2051 9.27172 43.2694 16.4993 44.5436 19.3726C45.8178 22.2458 49.1157 21.639 49.1157 21.639Z" fill="white"/>
<path d="M53.5237 29.8409C51.0681 29.8409 49.3585 27.9314 49.337 27.9029C49.3106 27.8734 49.2954 27.8354 49.2942 27.7958L48.9373 21.8388C48.1842 21.9138 45.5002 21.9851 44.3687 19.4332C43.0945 16.5778 43.0196 9.55719 43.016 9.26095C43.0163 9.21785 43.0319 9.17626 43.06 9.14358C43.0881 9.1109 43.1269 9.08925 43.1695 9.08249C46.6695 8.60529 49.9788 7.20318 52.7563 5.02074C52.7809 4.99928 52.8108 4.98494 52.8429 4.97928C52.875 4.97362 52.908 4.97685 52.9384 4.98862C52.9683 5.00023 52.9946 5.01955 53.0147 5.04463C53.0348 5.0697 53.0478 5.09963 53.0526 5.13139C53.4737 8.40077 54.5374 10.1461 55.3547 11.0384C55.7964 11.5714 56.377 11.9717 57.0322 12.1948C57.065 12.2034 57.0948 12.221 57.1181 12.2456C57.1414 12.2702 57.1574 12.3008 57.1643 12.334L59.5414 23.884C59.5414 23.9446 59.6485 27.1748 55.9722 29.1806C55.2252 29.6047 54.3826 29.8319 53.5237 29.8409ZM49.644 27.6994C50.0009 28.0885 52.5565 30.6369 55.8151 28.8559C59.2844 26.957 59.1987 23.9411 59.1987 23.9125L56.8466 12.4911C56.2541 12.2948 53.5701 11.1098 52.7528 5.47046C50.009 7.54295 46.7886 8.89297 43.3872 9.39658C43.3872 10.4673 43.5657 16.6992 44.7042 19.2726C45.907 21.978 48.9551 21.4676 49.0836 21.4462C49.1084 21.4414 49.1338 21.4417 49.1584 21.4473C49.183 21.4528 49.2061 21.4634 49.2264 21.4783C49.2459 21.4948 49.2619 21.5149 49.2735 21.5376C49.2852 21.5602 49.2922 21.585 49.2942 21.6104L49.644 27.6994Z" fill="#231F20"/>
<path d="M55.6617 15.6141C56.5002 15.7404 57.3547 15.53 58.0387 15.0288C58.5006 14.663 58.8607 14.1847 59.0845 13.6397C59.3082 13.0946 59.3881 12.5012 59.3165 11.9165C59.2946 11.4794 59.1725 11.0532 58.9596 10.6708C58.8554 10.4796 58.7113 10.313 58.537 10.1824C58.3627 10.0519 58.1623 9.96036 57.9495 9.91413C57.4225 9.88136 56.899 10.0204 56.4576 10.3103C55.7652 10.6672 55.7438 11.0634 55.3654 11.6488C55.4082 11.5952 55.4404 11.4453 55.4832 11.3918" fill="white"/>
<path d="M56.14 15.8321C55.9703 15.8314 55.8009 15.8183 55.6331 15.7928C55.586 15.7849 55.5438 15.7588 55.5157 15.7201C55.4877 15.6813 55.476 15.6331 55.4832 15.5858C55.4867 15.5627 55.4947 15.5405 55.5069 15.5206C55.5191 15.5007 55.5351 15.4834 55.5541 15.4697C55.573 15.4561 55.5945 15.4464 55.6173 15.4412C55.6401 15.436 55.6637 15.4354 55.6867 15.4395C56.4774 15.5559 57.282 15.3544 57.9246 14.8791C58.3619 14.5312 58.7022 14.0766 58.9129 13.559C59.1236 13.0414 59.1974 12.4782 59.1274 11.9238C59.1131 11.5143 59.0044 11.1137 58.8097 10.7531C58.7177 10.5861 58.5911 10.4405 58.4385 10.326C58.2859 10.2116 58.1107 10.1309 57.9246 10.0893C57.482 10.0107 57.0394 10.2142 56.5468 10.4676C56.2084 10.6322 55.9436 10.9174 55.8044 11.2671C55.7295 11.4027 55.6474 11.5562 55.5368 11.724C55.5293 11.7384 55.5197 11.7517 55.5082 11.7632C55.4795 11.7987 55.438 11.8216 55.3927 11.8269C55.3473 11.8322 55.3017 11.8196 55.2655 11.7918C55.2278 11.7652 55.2021 11.7247 55.1941 11.6792C55.186 11.6338 55.1963 11.587 55.2227 11.5491C55.2227 11.5491 55.2227 11.5027 55.2477 11.4777C55.2686 11.4131 55.2986 11.3518 55.3369 11.2956C55.3554 11.274 55.3786 11.2569 55.4047 11.2457L55.4725 11.1172C55.6488 10.7031 55.968 10.3662 56.3719 10.1678C56.7931 9.95006 57.3749 9.65025 57.971 9.75376C58.2133 9.80184 58.4422 9.9021 58.6419 10.0476C58.8416 10.193 59.0073 10.3802 59.1274 10.5961C59.3462 11.0043 59.4683 11.4574 59.4843 11.9203C59.5597 12.5347 59.4751 13.1582 59.2388 13.7304C59.0024 14.3026 58.6222 14.804 58.1351 15.1861C57.5556 15.608 56.8568 15.8342 56.14 15.8321Z" fill="#231F20"/>
<path d="M49.3013 24.8726C50.0042 24.822 50.6842 24.6005 51.2819 24.2273C51.8797 23.854 52.3773 23.3404 52.7313 22.7311C53.9912 20.6288 53.488 19.2832 53.488 19.2832C53.488 19.2832 51.7891 21.4497 49.1157 21.6246L49.3013 24.8726Z" fill="#231F20"/>
<path d="M49.3013 25.0476C49.2562 25.0477 49.2127 25.0302 49.1801 24.999C49.1475 24.9677 49.1283 24.925 49.1265 24.8799L48.9373 21.6676C48.9358 21.6442 48.939 21.6207 48.9467 21.5984C48.9543 21.5762 48.9663 21.5558 48.9819 21.5382C48.9975 21.5206 49.0164 21.5063 49.0375 21.496C49.0586 21.4858 49.0816 21.4798 49.105 21.4784C51.6642 21.3142 53.331 19.2298 53.3488 19.2084C53.3682 19.1832 53.394 19.1636 53.4235 19.1517C53.453 19.1398 53.4851 19.1359 53.5166 19.1406C53.5477 19.1459 53.5769 19.1593 53.6013 19.1793C53.6257 19.1993 53.6445 19.2254 53.6558 19.2548C53.6772 19.3119 54.1733 20.7039 52.8813 22.8561C52.5135 23.4892 51.9955 24.0219 51.373 24.4072C50.7505 24.7925 50.0427 25.0186 49.3121 25.0655L49.3013 25.0476ZM49.3013 21.7997L49.4691 24.68C50.1066 24.6015 50.7176 24.3779 51.2553 24.0265C51.7929 23.675 52.2429 23.2051 52.5707 22.6527C53.4238 21.225 53.4452 20.1828 53.3809 19.6831C52.3122 20.8464 50.8678 21.5958 49.3013 21.7997Z" fill="#231F20"/>
<path d="M48.6446 11.8701C48.6446 11.8701 47.3062 15.3965 47.9129 15.8176C48.5197 16.2388 49.8011 15.5678 49.8011 15.5678" fill="white"/>
<path d="M48.4412 16.1351C48.2179 16.1454 47.997 16.0855 47.8094 15.9638C47.1384 15.4998 48.1664 12.6659 48.4733 11.8057C48.4901 11.7619 48.5235 11.7264 48.5663 11.7071C48.609 11.6877 48.6577 11.6859 48.7017 11.7022C48.7239 11.7105 48.7441 11.7231 48.7613 11.7393C48.7785 11.7555 48.7924 11.775 48.802 11.7966C48.8116 11.8182 48.8169 11.8414 48.8174 11.8651C48.818 11.8887 48.8138 11.9122 48.8053 11.9342C48.1842 13.5725 47.7345 15.4677 48.0129 15.6676C48.4376 15.9603 49.387 15.5819 49.7154 15.4106C49.7576 15.389 49.8067 15.3847 49.852 15.3987C49.8973 15.4127 49.9354 15.4439 49.9581 15.4856C49.9793 15.5277 49.9829 15.5765 49.9682 15.6213C49.9535 15.6661 49.9216 15.7033 49.8796 15.7247C49.435 15.9628 48.9445 16.1028 48.4412 16.1351Z" fill="#231F20"/>
<path d="M51.2773 11.7809C51.5493 11.693 51.669 11.31 51.5448 10.9255C51.4205 10.541 51.0993 10.3006 50.8273 10.3885C50.5553 10.4764 50.4356 10.8593 50.5598 11.2438C50.6841 11.6284 51.0053 11.8688 51.2773 11.7809Z" fill="#231F20"/>
<path d="M46.2839 12.9484C46.5697 12.9445 46.7969 12.6138 46.7914 12.2097C46.7859 11.8057 46.5497 11.4813 46.2639 11.4851C45.9781 11.489 45.7509 11.8197 45.7564 12.2238C45.7619 12.6279 45.9981 12.9523 46.2839 12.9484Z" fill="#231F20"/>
<path d="M49.0693 20.3468C48.7265 20.3558 48.3895 20.2572 48.1056 20.0648C46.9813 19.2439 46.8992 17.4308 46.8957 17.3523C46.8947 17.3101 46.9084 17.2688 46.9344 17.2356C46.9605 17.2024 46.9972 17.1793 47.0384 17.1702C51.657 16.1601 51.707 16.1958 51.789 16.2565C51.8094 16.2719 51.8266 16.2912 51.8394 16.3132C51.8523 16.3353 51.8606 16.3597 51.864 16.385C51.9355 17.1046 51.8364 17.8309 51.5749 18.5051C51.4176 18.9184 51.1685 19.2906 50.8464 19.5936C50.5243 19.8965 50.1375 20.1224 49.7153 20.254C49.5053 20.3147 49.2879 20.346 49.0693 20.3468ZM47.2669 17.4914C47.3097 17.9233 47.5024 19.1868 48.3091 19.7722C48.5011 19.8901 48.7169 19.964 48.9409 19.9887C49.1649 20.0134 49.3916 19.9882 49.6047 19.9149C49.9768 19.7991 50.3177 19.6005 50.6021 19.3341C50.8864 19.0677 51.1068 18.7403 51.2465 18.3766C51.4674 17.809 51.5601 17.1996 51.5178 16.592C50.9039 16.7027 48.7374 17.1667 47.2669 17.4879V17.4914Z" fill="#231F20"/>
<path d="M51.4108 18.4481C50.7255 20.1042 49.0087 20.5004 48.1985 19.9257C48.3805 19.294 48.7125 18.6373 49.3299 18.3981C50.0074 18.167 50.7451 18.1847 51.4108 18.4481Z" fill="#231F20"/>
<path d="M49.0693 20.3433C48.727 20.3528 48.3902 20.2555 48.1056 20.0649C48.0762 20.0435 48.0542 20.0134 48.0427 19.9788C48.0311 19.9443 48.0307 19.907 48.0414 19.8722C48.2841 19.0013 48.7017 18.4445 49.2763 18.2268C49.9908 17.984 50.7679 18.0004 51.4714 18.2732C51.4942 18.2815 51.5151 18.2944 51.5329 18.3109C51.5507 18.3275 51.565 18.3474 51.5749 18.3696C51.5926 18.4143 51.5926 18.464 51.5749 18.5087C51.4167 18.9211 51.1673 19.2924 50.8452 19.5946C50.5232 19.8969 50.1369 20.1223 49.7154 20.2541C49.5052 20.3135 49.2878 20.3435 49.0693 20.3433ZM48.4197 19.8401C48.7908 20.0154 49.2152 20.041 49.6047 19.9114C49.9465 19.8069 50.2624 19.6314 50.5318 19.3965C50.8012 19.1616 51.018 18.8724 51.168 18.548C50.5957 18.3578 49.9772 18.3578 49.4048 18.548C48.9658 18.7265 48.6446 19.1619 48.4197 19.8401Z" fill="#231F20"/>
<path d="M43.0374 14.7184C42.7932 14.7183 42.5563 14.6347 42.3661 14.4815C42.1759 14.3283 42.0438 14.1146 41.9917 13.876L41.6169 12.1735C41.5564 11.8962 41.6085 11.6061 41.7618 11.3672C41.915 11.1283 42.1569 10.96 42.4342 10.8993L46.4139 10.0249C46.5515 9.99438 46.6937 9.99136 46.8325 10.016C46.9712 10.0406 47.1037 10.0923 47.2225 10.1683C47.3412 10.2442 47.4437 10.3428 47.5242 10.4585C47.6047 10.5741 47.6616 10.7045 47.6917 10.8422L48.0486 12.5447C48.1063 12.8185 48.0547 13.104 47.9046 13.3401C47.7545 13.5763 47.5179 13.7443 47.2455 13.8082L43.2659 14.6791C43.1915 14.701 43.1148 14.7142 43.0374 14.7184ZM46.6459 10.3711C46.5949 10.3658 46.5434 10.3658 46.4924 10.3711L42.5163 11.242C42.3348 11.2838 42.1769 11.3949 42.0762 11.5517C41.9755 11.7084 41.94 11.8982 41.9774 12.0807L42.3521 13.8082C42.3948 13.9883 42.5057 14.1448 42.6615 14.2447C42.8174 14.3446 43.0059 14.38 43.1873 14.3436L47.167 13.4513C47.3471 13.4086 47.5036 13.2977 47.6035 13.1419C47.7034 12.9861 47.7388 12.7976 47.7024 12.6161L47.3454 10.9136C47.3095 10.758 47.2225 10.619 47.0983 10.5187C46.9741 10.4184 46.8198 10.3627 46.6602 10.3604L46.6459 10.3711Z" fill="#231F20"/>
<path d="M50.1294 13.1656C49.9242 13.1651 49.7235 13.1056 49.5512 12.9943C49.3127 12.8413 49.1445 12.6 49.0836 12.3233L48.7267 10.6208C48.6655 10.3436 48.7168 10.0535 48.8694 9.81414C48.9453 9.69501 49.0439 9.59205 49.1597 9.51119C49.2754 9.43033 49.4061 9.37317 49.544 9.34301L53.5201 8.47212C53.6577 8.44164 53.7999 8.43862 53.9387 8.46323C54.0774 8.48784 54.21 8.5396 54.3287 8.61553C54.4474 8.69146 54.5499 8.79008 54.6305 8.90573C54.711 9.02138 54.7679 9.15178 54.7979 9.28947L55.1548 10.992C55.2169 11.2673 55.1677 11.5561 55.018 11.7954C54.8682 12.0347 54.6301 12.2051 54.3553 12.2697L50.3792 13.1406C50.2969 13.1569 50.2133 13.1653 50.1294 13.1656ZM53.7378 8.8112C53.6862 8.81184 53.6348 8.81782 53.5844 8.82904L49.6083 9.70349C49.5177 9.7225 49.4319 9.75945 49.3559 9.81217C49.2799 9.86489 49.2152 9.93231 49.1657 10.0104C49.0651 10.1682 49.0305 10.3592 49.0693 10.5423L49.4441 12.2448C49.4867 12.4249 49.5977 12.5814 49.7535 12.6812C49.9093 12.7811 50.0978 12.8166 50.2793 12.7801L54.2589 11.9093C54.4409 11.8687 54.5997 11.7585 54.7015 11.6023C54.8009 11.444 54.8342 11.2531 54.7943 11.0705L54.4374 9.36799C54.4016 9.20939 54.3128 9.06775 54.1856 8.9665C54.0584 8.86525 53.9004 8.81046 53.7378 8.8112Z" fill="#231F20"/>
<path d="M47.5096 11.0669C47.4769 11.0676 47.4447 11.059 47.4168 11.042C47.3752 11.0173 47.3448 10.9775 47.3322 10.9308C47.3195 10.8841 47.3255 10.8344 47.349 10.7921C47.5168 10.503 48.0629 10.0497 48.9587 10.4102C49.0061 10.4282 49.0443 10.4642 49.065 10.5104C49.0858 10.5566 49.0874 10.6092 49.0694 10.6565C49.0514 10.7038 49.0153 10.7421 48.9691 10.7628C48.923 10.7836 48.8704 10.7851 48.8231 10.7671C48.0236 10.4459 47.7024 10.9349 47.6702 10.992C47.6516 11.0166 47.6273 11.0364 47.5993 11.0494C47.5713 11.0625 47.5405 11.0685 47.5096 11.0669Z" fill="#231F20"/>
<path d="M11.9533 58.5803H85.336L97.1108 80.0847H0.178467L11.9533 58.5803Z" fill="white"/>
<path d="M97.1108 80.2632H0.178468C0.147735 80.2631 0.117544 80.2551 0.0907072 80.2401C0.0638707 80.2252 0.0412627 80.2036 0.0249924 80.1776C0.00999654 80.1502 0.00213623 80.1195 0.00213623 80.0883C0.00213623 80.0571 0.00999654 80.0264 0.0249924 79.9991L11.8033 58.4947C11.8185 58.4663 11.8411 58.4425 11.8688 58.4262C11.8965 58.4098 11.9282 58.4014 11.9604 58.4019H85.3324C85.3646 58.4014 85.3963 58.4098 85.424 58.4262C85.4517 58.4425 85.4744 58.4663 85.4895 58.4947L97.2678 79.9991C97.2828 80.0264 97.2907 80.0571 97.2907 80.0883C97.2907 80.1195 97.2828 80.1502 97.2678 80.1776C97.2512 80.2041 97.228 80.226 97.2005 80.241C97.173 80.256 97.1421 80.2637 97.1108 80.2632ZM0.481849 79.9063H96.8074L85.2289 58.7588H12.0603L0.481849 79.9063Z" fill="#D1D3D4"/>
<path d="M13.0918 44.7067L13.2488 44.0286C13.6058 43.3504 14.0019 42.8936 14.9228 42.8936H49.8545C50.2768 42.8943 50.6875 43.0316 51.0253 43.2851C51.3631 43.5386 51.6097 43.8945 51.7284 44.2998L57.407 63.8091C57.5535 64.2274 57.535 64.6859 57.3553 65.091C57.1756 65.4962 56.8482 65.8177 56.4397 65.9898L55.8222 66.1362L13.0918 44.7067Z" fill="white"/>
<path d="M55.8223 66.3147C55.7952 66.3138 55.7685 66.3078 55.7438 66.2968L13.0133 44.8602C12.9773 44.8426 12.9484 44.8131 12.9315 44.7768C12.9146 44.7404 12.9107 44.6993 12.9205 44.6604L13.0776 43.9822C13.076 43.9668 13.076 43.9512 13.0776 43.9358C13.4345 43.2898 13.8449 42.708 14.9086 42.708H49.8403C50.3009 42.7099 50.7487 42.8602 51.1171 43.1367C51.4855 43.4131 51.755 43.801 51.8855 44.2428L57.5676 63.777C57.7272 64.238 57.7054 64.7425 57.5065 65.188C57.3076 65.6334 56.9466 65.9865 56.4969 66.1755L55.858 66.329L55.8223 66.3147ZM13.3096 44.6104L55.858 65.9471L56.4112 65.8186C57.2714 65.4831 57.4498 64.5658 57.2464 63.8591L51.5678 44.3498C51.4589 43.9822 51.2346 43.6595 50.9279 43.4293C50.6213 43.1992 50.2487 43.0739 49.8653 43.0721H14.9228C14.1341 43.0721 13.795 43.429 13.4166 44.0929L13.3096 44.6104Z" fill="#231F20"/>
<path d="M55.8223 66.1362H20.1767C19.9345 66.1335 19.6996 66.0529 19.5067 65.9063C19.3139 65.7598 19.1734 65.555 19.1059 65.3224L13.1061 44.7067C13.0835 44.6276 13.0795 44.5444 13.0945 44.4635C13.1095 44.3826 13.143 44.3063 13.1925 44.2406C13.2419 44.1748 13.306 44.1215 13.3796 44.0847C13.4531 44.0479 13.5342 44.0287 13.6165 44.0286H50.2151L56.4148 65.3474C56.4421 65.4393 56.4475 65.5364 56.4305 65.6308C56.4136 65.7252 56.3747 65.8143 56.3171 65.891C56.2595 65.9677 56.1848 66.0298 56.0988 66.0724C56.0129 66.115 55.9182 66.1368 55.8223 66.1362Z" fill="#231F20"/>
<path d="M55.8223 66.3148H20.1767C19.8938 66.3134 19.6189 66.2211 19.3927 66.0514C19.1664 65.8817 19.0008 65.6436 18.9203 65.3725L12.9205 44.7568C12.8915 44.6514 12.8871 44.5407 12.9077 44.4333C12.9283 44.326 12.9732 44.2247 13.0391 44.1375C13.1049 44.0502 13.19 43.9793 13.2876 43.9301C13.3853 43.8809 13.4929 43.8548 13.6022 43.8538H50.215C50.2529 43.8532 50.2898 43.8651 50.3202 43.8877C50.3505 43.9103 50.3725 43.9423 50.3828 43.9787L56.5861 65.2975C56.6204 65.416 56.6266 65.5409 56.6044 65.6622C56.5822 65.7836 56.5321 65.8981 56.458 65.9967C56.3839 66.0954 56.2879 66.1755 56.1776 66.2307C56.0673 66.2859 55.9456 66.3146 55.8223 66.3148ZM13.6022 44.2071C13.5479 44.208 13.4945 44.2212 13.4461 44.2458C13.3976 44.2704 13.3555 44.3058 13.3228 44.3491C13.2901 44.3925 13.2677 44.4428 13.2574 44.4961C13.247 44.5494 13.249 44.6044 13.2631 44.6569L19.2594 65.2725C19.3184 65.4701 19.4395 65.6435 19.6047 65.7669C19.7699 65.8903 19.9704 65.9573 20.1767 65.9578H55.8223C55.8912 65.9583 55.9593 65.9427 56.0213 65.9123C56.0832 65.882 56.1372 65.8377 56.1792 65.7829C56.2195 65.7283 56.2466 65.6651 56.2584 65.5982C56.2702 65.5313 56.2663 65.4626 56.247 65.3975L50.0723 44.2071H13.6022Z" fill="#231F20"/>
<path d="M49.8439 57.3523L47.6774 66.5644C47.5627 67.0575 47.2843 67.4971 46.8876 67.8115C46.4908 68.1259 45.9992 68.2965 45.493 68.2955H22.9464C22.608 68.2953 22.274 68.2186 21.9693 68.0712C21.6647 67.9237 21.3974 67.7093 21.1873 67.444C20.9772 67.1786 20.8299 66.8693 20.7562 66.5389C20.6826 66.2086 20.6846 65.8659 20.762 65.5365L22.6716 57.3523H20.8049L18.9774 65.1153C18.8395 65.7131 18.8382 66.3343 18.9735 66.9326C19.1089 67.531 19.3774 68.0911 19.7592 68.5713C20.141 69.0516 20.6261 69.4395 21.1786 69.7063C21.731 69.973 22.3365 70.1118 22.95 70.1122H45.5109C46.4251 70.1116 47.3124 69.8031 48.0298 69.2365C48.7473 68.6699 49.253 67.8783 49.4655 66.9891L51.7284 57.3523H49.8439Z" fill="white"/>
<path d="M45.493 70.3158H22.9464C22.3045 70.3156 21.6709 70.1703 21.0931 69.8907C20.5153 69.6111 20.0081 69.2045 19.6096 68.7013C19.2111 68.1981 18.9315 67.6113 18.7917 66.9848C18.652 66.3583 18.6557 65.7082 18.8026 65.0834L20.6264 57.3168C20.6361 57.2778 20.6586 57.2432 20.6903 57.2186C20.722 57.194 20.7612 57.1808 20.8013 57.1812H22.6858C22.7126 57.1815 22.739 57.1878 22.763 57.1995C22.7871 57.2113 22.8083 57.2281 22.825 57.249C22.8414 57.2699 22.8528 57.2942 22.8584 57.3202C22.864 57.3462 22.8636 57.3731 22.8572 57.3989L20.9334 65.5831C20.8624 65.8865 20.861 66.2021 20.929 66.5063C20.9971 66.8104 21.1329 67.0953 21.3265 67.3396C21.52 67.5839 21.7662 67.7814 22.0467 67.9172C22.3272 68.0531 22.6347 68.1239 22.9464 68.1243H45.5073C45.9738 68.1252 46.4268 67.9679 46.7924 67.6781C47.158 67.3884 47.4146 66.9832 47.5203 66.5289L49.6868 57.3168C49.6958 57.2781 49.7176 57.2436 49.7487 57.2189C49.7798 57.1943 49.8184 57.181 49.8582 57.1812H51.7427C51.7693 57.1817 51.7955 57.188 51.8194 57.1998C51.8433 57.2115 51.8643 57.2284 51.881 57.2492C51.8977 57.2699 51.9096 57.2941 51.9159 57.32C51.9222 57.3458 51.9228 57.3728 51.9176 57.3989L49.6511 67.0357C49.4332 67.9732 48.9028 68.8087 48.1472 69.4048C47.3915 70.0009 46.4555 70.3222 45.493 70.3158ZM20.9262 57.5381L19.1416 65.1655C19.0063 65.7387 19.0025 66.3351 19.1308 66.91C19.259 67.4848 19.5159 68.0231 19.8821 68.4845C20.2482 68.9458 20.7142 69.3181 21.2449 69.5735C21.7757 69.8289 22.3574 69.9606 22.9464 69.9589H45.5073C46.3875 69.9614 47.2424 69.6652 47.9323 69.1186C48.6222 68.572 49.1061 67.8075 49.3049 66.9501L51.5178 57.5381H50.0009L47.8594 66.611C47.737 67.1443 47.4367 67.6201 47.0079 67.96C46.5791 68.2999 46.0474 68.4838 45.5002 68.4812H22.9464C22.5808 68.4813 22.2198 68.3987 21.8907 68.2395C21.5615 68.0803 21.2726 67.8487 21.0456 67.562C20.8187 67.2753 20.6596 66.9409 20.5802 66.584C20.5008 66.2271 20.5032 65.8568 20.5872 65.501L22.4574 57.5381H20.9262Z" fill="#231F20"/>
<path d="M78.9186 38.5676C78.9186 38.5676 82.1094 52.7373 79.4968 56.3565C76.8841 59.9757 58.6384 59.4046 58.6384 59.4046C58.6384 59.4046 55.6795 62.956 53.1097 62.7204C50.5399 62.4848 52.0389 57.6236 55.062 55.5998L54.6444 53.9116L70.7308 51.3311L68.5893 41.1482" fill="white"/>
<path d="M53.3452 62.9097C53.2572 62.9097 53.168 62.9097 53.0776 62.9097C52.745 62.893 52.4273 62.7667 52.1741 62.5504C51.921 62.334 51.7467 62.0399 51.6784 61.714C51.2751 60.1328 52.5672 57.1168 54.8407 55.5321L54.4553 53.9652C54.449 53.9418 54.4477 53.9173 54.4513 53.8934C54.455 53.8694 54.4637 53.8465 54.4767 53.826C54.4901 53.8051 54.5079 53.7872 54.5289 53.7737C54.5498 53.7601 54.5734 53.7512 54.598 53.7475L70.4988 51.1955L68.393 41.2018C68.3883 41.1788 68.3882 41.1552 68.3926 41.1321C68.3971 41.1091 68.406 41.0872 68.419 41.0677C68.4319 41.0481 68.4485 41.0313 68.468 41.0182C68.4874 41.005 68.5092 40.9959 68.5322 40.9912C68.5549 40.986 68.5785 40.9853 68.6015 40.9894C68.6245 40.9934 68.6465 41.002 68.6661 41.0146C68.6857 41.0272 68.7026 41.0437 68.7158 41.063C68.7289 41.0822 68.7381 41.1039 68.7428 41.1268L70.8843 51.3098C70.8895 51.3337 70.8897 51.3584 70.8848 51.3824C70.8799 51.4064 70.87 51.429 70.8557 51.449C70.8423 51.4689 70.8249 51.4858 70.8046 51.4987C70.7844 51.5116 70.7617 51.5202 70.738 51.5239L54.8443 54.0759L55.2012 55.5749C55.2104 55.61 55.2084 55.647 55.1956 55.6809C55.1829 55.7148 55.1599 55.7439 55.1298 55.7641C52.9455 57.2275 51.6356 60.1721 52.0104 61.6354C52.0584 61.8877 52.1904 62.1163 52.3848 62.2841C52.5792 62.4519 52.8246 62.5491 53.0811 62.5599C55.526 62.7883 58.4349 59.3476 58.4563 59.3083C58.4737 59.2875 58.4956 59.2708 58.5203 59.2597C58.545 59.2486 58.572 59.2432 58.5991 59.2441C58.7811 59.2441 76.802 59.7688 79.3219 56.2674C81.8417 52.766 78.7508 38.7783 78.7187 38.6248C78.7135 38.6014 78.713 38.5772 78.7172 38.5535C78.7214 38.5299 78.7303 38.5073 78.7432 38.4871C78.7561 38.4669 78.7729 38.4494 78.7926 38.4357C78.8123 38.422 78.8344 38.4123 78.8579 38.4071C78.8813 38.4019 78.9055 38.4015 78.9292 38.4057C78.9528 38.4099 78.9753 38.4187 78.9956 38.4316C79.0158 38.4445 79.0333 38.4613 79.047 38.481C79.0607 38.5007 79.0704 38.5229 79.0756 38.5463C79.2077 39.1281 82.2522 52.8231 79.6217 56.478C77.0519 60.0471 60.2088 59.6474 58.6848 59.601C58.2815 60.0721 55.7366 62.9097 53.3452 62.9097Z" fill="#231F20"/>
<path d="M59.7769 31.5506C59.7494 31.5502 59.7223 31.5428 59.6984 31.5292C59.6765 31.5193 59.6568 31.505 59.6406 31.4873C59.6244 31.4696 59.6119 31.4487 59.6039 31.4261C59.5959 31.4034 59.5925 31.3794 59.594 31.3554C59.5956 31.3314 59.6019 31.308 59.6127 31.2865C62.204 25.9327 68.857 22.3314 68.9248 22.2957C68.9457 22.2839 68.9689 22.2766 68.9928 22.274C69.0167 22.2714 69.0409 22.2737 69.0639 22.2807C69.0869 22.2877 69.1082 22.2993 69.1266 22.3147C69.145 22.3302 69.1602 22.3492 69.171 22.3706C69.1829 22.3919 69.1903 22.4153 69.1929 22.4395C69.1955 22.4636 69.1933 22.4881 69.1863 22.5114C69.1793 22.5347 69.1677 22.5563 69.1522 22.575C69.1367 22.5938 69.1176 22.6092 69.0961 22.6205C69.0318 22.6562 62.4824 26.1897 59.9447 31.4471C59.9289 31.4781 59.9049 31.5042 59.8753 31.5224C59.8457 31.5407 59.8117 31.5504 59.7769 31.5506Z" fill="#231F20"/>
<path d="M48.7766 31.2971C48.7507 31.3025 48.724 31.3025 48.6981 31.2971C42.4806 28.4418 41.7275 22.1671 41.7203 22.1065C41.7153 22.0577 41.7298 22.009 41.7605 21.9709C41.7913 21.9328 41.8358 21.9084 41.8845 21.903C41.9084 21.9 41.9327 21.9018 41.956 21.9083C41.9792 21.9148 42.0009 21.9258 42.0198 21.9408C42.0388 21.9557 42.0545 21.9743 42.0662 21.9954C42.0779 22.0164 42.0853 22.0397 42.088 22.0636C42.088 22.1243 42.8304 28.1955 48.8694 30.9295C48.9136 30.9498 48.948 30.9865 48.9654 31.0319C48.9827 31.0773 48.9816 31.1277 48.9622 31.1722C48.9486 31.2101 48.9233 31.2426 48.8899 31.2651C48.8565 31.2875 48.8168 31.2988 48.7766 31.2971Z" fill="#231F20"/>
<path d="M20.4479 39.3887C20.4091 39.3776 20.375 39.3542 20.3507 39.322C20.3264 39.2898 20.3133 39.2506 20.3133 39.2102C20.3133 39.1699 20.3264 39.1307 20.3507 39.0985C20.375 39.0663 20.4091 39.0429 20.4479 39.0318C23.1391 38.9497 24.4454 37.4292 24.4597 37.4149C24.4749 37.3964 24.4936 37.381 24.5148 37.3697C24.5359 37.3583 24.5591 37.3513 24.583 37.349C24.6069 37.3467 24.631 37.3491 24.6539 37.3561C24.6769 37.3632 24.6982 37.3747 24.7167 37.39C24.7544 37.4213 24.7782 37.4663 24.7829 37.5151C24.7876 37.5639 24.7728 37.6126 24.7417 37.6505C24.6846 37.7183 23.314 39.3137 20.4586 39.3994L20.4479 39.3887Z" fill="#231F20"/>
<path d="M68.5679 41.3304C68.5268 41.3307 68.4868 41.3172 68.4544 41.2919C68.422 41.2666 68.3991 41.2311 68.3894 41.1912C68.3894 41.1269 66.7083 34.5489 66.4763 30.6049C66.4749 30.581 66.4782 30.5571 66.486 30.5344C66.4938 30.5118 66.5061 30.4909 66.522 30.473C66.5379 30.4551 66.5572 30.4405 66.5788 30.4301C66.6003 30.4196 66.6237 30.4136 66.6477 30.4122C66.6963 30.4093 66.7442 30.4256 66.7809 30.4576C66.8177 30.4897 66.8403 30.5349 66.844 30.5835C67.076 34.4918 68.7321 41.0341 68.7464 41.102C68.7583 41.1493 68.7512 41.1994 68.7265 41.2415C68.7018 41.2836 68.6614 41.3142 68.6143 41.3268L68.5679 41.3304Z" fill="#231F20"/>
<path d="M39.8001 42.5043C39.7759 42.503 39.7522 42.4968 39.7304 42.4861C39.7085 42.4755 39.6891 42.4606 39.6731 42.4423C39.6572 42.424 39.645 42.4027 39.6374 42.3796C39.6298 42.3566 39.6269 42.3322 39.6288 42.308L40.514 28.4417C40.5153 28.4174 40.5215 28.3937 40.5322 28.3719C40.5428 28.3501 40.5577 28.3306 40.576 28.3147C40.5943 28.2987 40.6156 28.2866 40.6387 28.2789C40.6617 28.2713 40.6861 28.2684 40.7103 28.2704C40.7344 28.2712 40.758 28.277 40.7798 28.2873C40.8016 28.2975 40.8211 28.3121 40.8371 28.3301C40.8531 28.3481 40.8653 28.3692 40.873 28.3921C40.8806 28.4149 40.8835 28.4391 40.8816 28.4631L39.9822 42.3294C39.9803 42.3765 39.9603 42.4209 39.9264 42.4536C39.8925 42.4862 39.8472 42.5044 39.8001 42.5043Z" fill="#231F20"/>
<path d="M71.4018 34.7487C71.3687 34.7491 71.3362 34.7403 71.3078 34.7233C71.2795 34.7063 71.2564 34.6817 71.2412 34.6523L69.5137 31.4401C69.4945 31.3932 69.4945 31.3406 69.5137 31.2937C69.5303 31.2458 69.5648 31.2061 69.6101 31.1831L74.9639 28.6525C74.9856 28.6416 75.0093 28.6352 75.0335 28.6337C75.0578 28.6321 75.0821 28.6354 75.1051 28.6434C75.128 28.6514 75.1491 28.6639 75.1672 28.6802C75.1852 28.6964 75.1998 28.7162 75.2101 28.7382C75.2311 28.7822 75.2339 28.8328 75.2178 28.8789C75.2018 28.925 75.1683 28.9629 75.1245 28.9845L69.9349 31.4329L71.4982 34.3311L76.7556 32.725C76.779 32.7179 76.8036 32.7156 76.828 32.7181C76.8523 32.7205 76.8759 32.7278 76.8975 32.7394C76.919 32.751 76.9381 32.7667 76.9535 32.7857C76.969 32.8046 76.9806 32.8265 76.9876 32.8499C76.9946 32.8733 76.997 32.8979 76.9945 32.9223C76.992 32.9466 76.9848 32.9702 76.9732 32.9918C76.9616 33.0133 76.9459 33.0324 76.9269 33.0478C76.9079 33.0633 76.8861 33.0749 76.8627 33.0819L71.4553 34.7523L71.4018 34.7487Z" fill="#231F20"/>
<path d="M76.0382 75.4767C80.9051 75.4767 84.8505 74.2894 84.8505 72.8248C84.8505 71.3602 80.9051 70.1729 76.0382 70.1729C71.1713 70.1729 67.2258 71.3602 67.2258 72.8248C67.2258 74.2894 71.1713 75.4767 76.0382 75.4767Z" fill="white"/>
<path d="M76.0382 75.6551C70.9985 75.6551 67.0474 74.4131 67.0474 72.8248C67.0474 71.2365 70.9985 69.9944 76.0382 69.9944C81.0779 69.9944 85.029 71.2365 85.029 72.8248C85.029 74.4131 81.0779 75.6551 76.0382 75.6551ZM76.0382 70.3513C70.8735 70.3513 67.4043 71.6291 67.4043 72.8248C67.4043 74.0204 70.8735 75.2982 76.0382 75.2982C81.2028 75.2982 84.6721 74.0204 84.6721 72.8248C84.6721 71.6291 81.2028 70.3513 76.0382 70.3513Z" fill="#D1D3D4"/>
<path d="M69.3959 65.2509L69.1853 65.2901C68.5484 65.3852 67.9689 65.7118 67.5578 66.2074C67.3273 66.5596 67.2001 66.9693 67.1906 67.3901C67.1812 67.8109 67.2898 68.2259 67.5042 68.5881C68.4394 70.2727 70.7165 70.7296 72.4726 70.9045C72.721 70.945 72.9756 70.9254 73.2149 70.8474C73.3331 70.807 73.4358 70.7312 73.5093 70.6303C73.5828 70.5294 73.6233 70.4082 73.6254 70.2834C73.6103 70.1808 73.5697 70.0836 73.5074 70.0007C73.445 69.9177 73.3629 69.8518 73.2685 69.8087C73.0845 69.7235 72.8881 69.668 72.6867 69.6446C71.5945 69.4661 70.4452 69.334 69.4459 68.8308C68.8641 68.5345 68.0503 67.86 68.4751 67.1318C68.6237 66.9013 68.8373 66.72 69.089 66.6107C70.0919 66.1325 71.0449 66.4965 72.0335 66.7892C72.1054 66.8156 72.182 66.8265 72.2584 66.8213C72.3529 66.7953 72.4346 66.7355 72.4879 66.6533C72.5412 66.571 72.5624 66.472 72.5475 66.3752C72.5154 65.9433 72.0835 65.6613 71.6766 65.5007C70.95 65.2248 70.165 65.1388 69.3959 65.2509Z" fill="white"/>
<path d="M72.7689 71.1009C72.6651 71.1005 72.5614 71.0945 72.4583 71.083C69.7779 70.8296 68.1075 70.0444 67.3472 68.6738C67.1157 68.2818 66.9992 67.8325 67.0112 67.3774C67.0232 66.9223 67.1632 66.4797 67.4151 66.1004C67.8528 65.5704 68.4702 65.2198 69.1497 65.1153L69.371 65.0761C70.1749 64.9561 70.9962 65.0459 71.7552 65.3366C72.1121 65.4687 72.6939 65.7792 72.7403 66.361C72.7583 66.5033 72.723 66.6473 72.6413 66.7652C72.5597 66.8831 72.4373 66.9667 72.2977 66.9999C72.1962 67.0066 72.0943 66.9933 71.9979 66.9606L71.7409 66.8821C70.8629 66.6144 70.0349 66.3646 69.1818 66.7715C68.9607 66.865 68.7729 67.023 68.6429 67.2247C68.5964 67.2983 68.5663 67.381 68.5546 67.4672C68.5429 67.5534 68.5499 67.6411 68.575 67.7244C68.7709 68.1462 69.1134 68.4823 69.5387 68.6703C70.425 69.056 71.3651 69.3039 72.3263 69.4055L72.7296 69.4698C72.9513 69.4941 73.1673 69.5557 73.3685 69.6518C73.5119 69.7057 73.6341 69.8043 73.7172 69.933C73.8002 70.0617 73.8397 70.2138 73.8296 70.3666C73.8196 70.5195 73.7607 70.6651 73.6616 70.7819C73.5625 70.8987 73.4284 70.9805 73.2792 71.0152C73.1158 71.0746 72.9428 71.1037 72.7689 71.1009ZM69.4245 65.4294L69.2211 65.4651C68.6284 65.5533 68.088 65.854 67.7006 66.311C67.49 66.6362 67.3747 67.0138 67.3678 67.4012C67.3608 67.7885 67.4625 68.17 67.6613 68.5025C68.3573 69.7589 69.9385 70.487 72.4905 70.7261C72.7098 70.7623 72.9344 70.7476 73.1472 70.6833C73.23 70.6553 73.3027 70.6034 73.356 70.5342C73.4094 70.4649 73.441 70.3815 73.447 70.2942C73.4355 70.2232 73.4066 70.1561 73.3631 70.0989C73.3195 70.0416 73.2625 69.996 73.1972 69.9659C73.0312 69.8901 72.854 69.8419 72.6725 69.8231L72.2692 69.7589C71.2715 69.6527 70.2962 69.3927 69.3781 68.9879C68.8641 68.7588 68.4552 68.3447 68.2324 67.8279C68.1933 67.6972 68.1823 67.5596 68.2001 67.4242C68.2179 67.2889 68.2642 67.1589 68.3359 67.0427C68.5012 66.7795 68.7427 66.5729 69.0283 66.4502C70.0063 65.9827 70.9414 66.2646 71.8444 66.5395L72.1014 66.618C72.1494 66.6356 72.2002 66.644 72.2513 66.643C72.337 66.643 72.3905 66.4966 72.3834 66.3896C72.3548 65.9898 71.8444 65.7542 71.6267 65.6757C70.9255 65.4078 70.1669 65.3254 69.4245 65.4366V65.4294Z" fill="#231F20"/>
<path d="M70.2204 63.4448C70.2204 63.4448 71.8694 71.6754 72.005 72.1715C72.1406 72.6676 76.0382 74.7056 79.1434 72.7033L81.8596 64.2907L70.2204 63.4448Z" fill="white"/>
<path d="M76.106 73.7493C75.1731 73.7416 74.2492 73.5651 73.3792 73.2282C72.6939 72.9641 71.9158 72.5357 71.8301 72.2181C71.6981 71.722 70.1133 63.8198 70.0455 63.4807C70.039 63.4539 70.0391 63.426 70.0457 63.3992C70.0523 63.3725 70.0653 63.3478 70.0835 63.3271C70.1017 63.3064 70.1246 63.2905 70.1503 63.2805C70.176 63.2706 70.2038 63.267 70.2311 63.2701L81.8703 64.1339C81.8974 64.1351 81.9239 64.1427 81.9477 64.156C81.9714 64.1693 81.9917 64.188 82.0069 64.2105C82.0222 64.233 82.0319 64.2588 82.0355 64.2858C82.039 64.3127 82.0362 64.3402 82.0273 64.3659L79.3112 72.7785C79.2978 72.8172 79.2713 72.8501 79.2362 72.8713C78.3009 73.4631 77.2127 73.7683 76.106 73.7493ZM70.4417 63.6413C70.7094 64.9798 72.0586 71.6863 72.1763 72.1253C72.2263 72.2431 72.8688 72.7213 74.0073 73.0676C75.0781 73.3924 77.1268 73.76 79.0042 72.5893L81.6312 64.4551L70.4417 63.6413Z" fill="#231F20"/>
<path d="M81.8876 63.9249C81.9448 62.5304 79.3807 61.2929 76.1605 61.1607C72.9402 61.0286 70.2833 62.0519 70.2261 63.4463C70.1689 64.8408 72.733 66.0783 75.9532 66.2105C79.1735 66.3426 81.8304 65.3193 81.8876 63.9249Z" fill="#231F20"/>
<path d="M76.5093 66.4004C76.3202 66.4004 76.131 66.4004 75.9418 66.4004C72.5689 66.2648 69.9777 64.9727 70.0419 63.4522C70.1062 61.9318 72.7938 60.861 76.1631 61.0002C79.5324 61.1394 82.1237 62.4279 82.0594 63.9484C82.0309 64.6979 81.3456 65.376 80.1642 65.8186C78.9907 66.2305 77.7527 66.4276 76.5093 66.4004ZM75.6135 61.3286C72.7831 61.3286 70.4453 62.2566 70.3953 63.4701C70.3453 64.7407 72.8937 65.9221 75.9561 66.047C77.3465 66.1281 78.7391 65.9328 80.0535 65.4724C81.0886 65.0762 81.6954 64.5087 81.7204 63.9198C81.7739 62.6456 79.2219 61.4642 76.1631 61.3393L75.6135 61.3286Z" fill="#231F20"/>
<path d="M62.0898 40.577H43.2051C43.1578 40.577 43.1124 40.5582 43.0789 40.5248C43.0455 40.4913 43.0267 40.4459 43.0267 40.3986V34.8235C43.0276 34.7764 43.0467 34.7316 43.08 34.6983C43.1132 34.665 43.1581 34.6459 43.2051 34.645H62.0898C62.1371 34.645 62.1825 34.6638 62.216 34.6973C62.2494 34.7308 62.2682 34.7761 62.2682 34.8235V40.4093C62.2655 40.4547 62.2455 40.4974 62.2123 40.5286C62.1791 40.5598 62.1353 40.5771 62.0898 40.577ZM43.3836 40.2201H61.9113V35.0019H43.3836V40.2201Z" fill="white"/>
<path d="M97.1072 80.0847H0.178467V83.8217H97.1072V80.0847Z" fill="white"/>
<path d="M97.1108 84.0001H0.17846C0.131129 84.0001 0.0857373 83.9813 0.0522696 83.9478C0.0188018 83.9144 0 83.869 0 83.8217V80.0847C0.000913741 80.0377 0.0200095 79.9928 0.0532812 79.9595C0.0865529 79.9263 0.131415 79.9072 0.17846 79.9062H97.1108C97.1578 79.9072 97.2027 79.9263 97.2359 79.9595C97.2692 79.9928 97.2883 80.0377 97.2892 80.0847V83.8217C97.2892 83.869 97.2704 83.9144 97.2369 83.9478C97.2035 83.9813 97.1581 84.0001 97.1108 84.0001ZM0.35692 83.6432H96.9323V80.2632H0.35692V83.6432Z" fill="#D1D3D4"/>
<path d="M81.856 45.1851C81.8089 45.1832 81.7645 45.1632 81.7319 45.1293C81.6993 45.0954 81.6811 45.0501 81.6811 45.003C81.6811 44.5926 81.9416 34.9165 83.0088 31.565C84.076 28.2135 86.0783 26.818 86.1604 26.7644C86.1997 26.7379 86.2479 26.7281 86.2945 26.7372C86.341 26.7462 86.382 26.7733 86.4085 26.8126C86.435 26.8519 86.4448 26.9001 86.4358 26.9466C86.4267 26.9932 86.3996 27.0342 86.3603 27.0607C86.3389 27.0607 84.3865 28.4134 83.3479 31.6721C82.3093 34.9308 82.0416 44.9103 82.038 45.0102C82.0375 45.0336 82.0325 45.0567 82.0231 45.0782C82.0137 45.0997 82.0001 45.1191 81.9832 45.1353C81.9663 45.1516 81.9464 45.1643 81.9246 45.1729C81.9027 45.1814 81.8794 45.1856 81.856 45.1851Z" fill="white"/>
</svg>
