<svg width="30" height="18" viewBox="0 0 30 18" fill="none" xmlns="http://www.w3.org/2000/svg">
<path d="M18.6958 16.0753H10.8214V1.92383H18.6959L18.6958 16.0753Z" fill="#FF5F00"/>
<path d="M11.3207 9C11.3207 6.12938 12.6648 3.57223 14.7578 1.92428C13.1735 0.675038 11.214 -0.00297132 9.1964 9.78876e-06C4.22636 9.78876e-06 0.197571 4.02938 0.197571 9C0.197571 13.9706 4.22636 18 9.1964 18C11.214 18.003 13.1736 17.325 14.758 16.0757C12.6651 14.4281 11.3207 11.8708 11.3207 9Z" fill="#EB001B"/>
<path d="M29.3192 9C29.3192 13.9706 25.2905 18 20.3204 18C18.3026 18.003 16.3428 17.325 14.7581 16.0757C16.8517 14.4278 18.1958 11.8708 18.1958 9C18.1958 6.12924 16.8517 3.57223 14.7581 1.92428C16.3427 0.675075 18.3025 -0.00291907 20.3203 9.44732e-06C25.2903 9.44732e-06 29.3191 4.02938 29.3191 9" fill="#F79E1B"/>
</svg>
