<svg width="95" height="84" viewBox="0 0 95 84" fill="none" xmlns="http://www.w3.org/2000/svg">
<path d="M0.186523 79.9084H93.9109V82.0181C93.9109 82.5438 93.702 83.0479 93.3304 83.4196C92.9587 83.7913 92.4546 84.0001 91.9289 84.0001H2.16847C1.64283 84.0001 1.13871 83.7913 0.767025 83.4196C0.395337 83.0479 0.186523 82.5438 0.186523 82.0181V79.9084Z" fill="black"/>
<path d="M92.3079 81.6555H1.78933C1.53475 81.6552 1.28389 81.5943 1.05752 81.4779C0.831149 81.3614 0.635776 81.1927 0.487576 80.9857C0.339377 80.7787 0.242615 80.5394 0.2053 80.2875C0.167985 80.0357 0.191193 79.7786 0.272999 79.5375L8.40681 55.5358C8.76348 54.4988 9.43547 53.5992 10.3287 52.9631C11.222 52.3269 12.2918 51.986 13.3885 51.988H80.7088C81.8089 51.9881 82.8814 52.3332 83.7751 52.9748C84.6688 53.6164 85.3387 54.5222 85.6904 55.5646L93.8242 79.5664C93.9005 79.8058 93.9193 80.0597 93.8794 80.3077C93.8394 80.5557 93.7417 80.7909 93.5941 80.9942C93.4465 81.1975 93.2532 81.3633 93.0298 81.4781C92.8064 81.593 92.5591 81.6537 92.3079 81.6555Z" fill="white"/>
<path d="M92.3079 81.8532H1.78935C1.50508 81.854 1.22472 81.7869 0.971639 81.6574C0.718556 81.528 0.50007 81.3399 0.334382 81.1089C0.168695 80.8779 0.0606043 80.6107 0.0191098 80.3294C-0.0223848 80.0482 0.00392036 79.7611 0.0958342 79.4921L8.22553 55.4863C8.59012 54.4058 9.28436 53.4669 10.2105 52.8016C11.1367 52.1364 12.2482 51.7783 13.3885 51.7778H80.7088C81.8491 51.7783 82.9606 52.1364 83.8867 52.8016C84.8129 53.4669 85.5072 54.4058 85.8717 55.4863L94.022 79.4921C94.114 79.7611 94.1403 80.0482 94.0988 80.3294C94.0573 80.6107 93.9492 80.8779 93.7835 81.1089C93.6178 81.3399 93.3993 81.528 93.1462 81.6574C92.8932 81.7869 92.6128 81.854 92.3285 81.8532H92.3079ZM13.3885 52.161C12.3274 52.1606 11.293 52.4932 10.431 53.112C9.56906 53.7307 8.92303 54.6044 8.58401 55.6099L0.450195 79.5952C0.378183 79.8078 0.357884 80.0346 0.390981 80.2567C0.424078 80.4788 0.509617 80.6898 0.640513 80.8723C0.77141 81.0547 0.943895 81.2034 1.14368 81.3059C1.34347 81.4084 1.5648 81.4618 1.78935 81.4617H92.3079C92.5325 81.4618 92.7538 81.4084 92.9536 81.3059C93.1534 81.2034 93.3259 81.0547 93.4568 80.8723C93.5877 80.6898 93.6732 80.4788 93.7063 80.2567C93.7394 80.0346 93.7191 79.8078 93.6471 79.5952L85.5133 55.5934C85.1742 54.5879 84.5282 53.7143 83.6662 53.0955C82.8043 52.4768 81.7699 52.1441 80.7088 52.1446L13.3885 52.161Z" fill="#231F20"/>
<path d="M83.1111 67.5759H11.2005C10.995 67.5769 10.792 67.5297 10.608 67.438C10.424 67.3463 10.2641 67.2128 10.141 67.0481C10.018 66.8834 9.93535 66.6921 9.89966 66.4897C9.86397 66.2872 9.87626 66.0792 9.93555 65.8824L12.8199 56.1375C12.9106 55.8372 13.0953 55.5739 13.3467 55.3863C13.5981 55.1986 13.903 55.0965 14.2167 55.095H79.7323C80.084 55.0974 80.4257 55.2124 80.7074 55.4229C80.9891 55.6335 81.1961 55.9286 81.298 56.2652L84.2112 66.076C84.2641 66.2501 84.2754 66.4341 84.2442 66.6133C84.213 66.7925 84.1401 66.9619 84.0315 67.1078C83.9229 67.2537 83.7815 67.3721 83.6188 67.4534C83.456 67.5347 83.2765 67.5767 83.0946 67.5759H83.1111ZM14.2167 55.507C13.9917 55.5088 13.7731 55.5826 13.5929 55.7175C13.4128 55.8525 13.2805 56.0415 13.2155 56.2569L10.3311 66.0019C10.2905 66.137 10.2822 66.2799 10.3068 66.4188C10.3314 66.5578 10.3883 66.6891 10.4728 66.8021C10.5574 66.9151 10.6673 67.0067 10.7937 67.0695C10.92 67.1323 11.0594 67.1647 11.2005 67.1638H83.1111C83.2285 67.1644 83.3445 67.1374 83.4496 67.0849C83.5547 67.0325 83.646 66.956 83.7162 66.8618C83.7864 66.7676 83.8334 66.6582 83.8535 66.5425C83.8737 66.4268 83.8664 66.3079 83.8321 66.1955L80.919 56.3806C80.842 56.1296 80.687 55.9096 80.4766 55.7525C80.2662 55.5955 80.0113 55.5095 79.7487 55.507H14.2167Z" fill="#D1D3D4"/>
<path d="M59.5131 78.4251H34.5842C34.3746 78.4249 34.1677 78.3778 33.9787 78.2873C33.7896 78.1968 33.6232 78.0651 33.4917 77.9019C33.3601 77.7388 33.2667 77.5482 33.2184 77.3443C33.17 77.1404 33.1678 76.9282 33.2121 76.7233L34.4029 71.3049C34.5115 70.8288 34.7777 70.4033 35.1584 70.0974C35.5391 69.7915 36.0119 69.6232 36.5002 69.6196H57.5971C58.0854 69.6232 58.5582 69.7915 58.9389 70.0974C59.3196 70.4033 59.5858 70.8288 59.6944 71.3049L60.8852 76.711C60.9295 76.9158 60.9273 77.128 60.8789 77.332C60.8306 77.5359 60.7372 77.7264 60.6056 77.8896C60.4741 78.0527 60.3077 78.1844 60.1186 78.2749C59.9296 78.3655 59.7227 78.4125 59.5131 78.4127V78.4251ZM36.5002 70.0317C36.1052 70.0334 35.7224 70.1694 35.4147 70.4172C35.107 70.665 34.8926 71.0099 34.8067 71.3956L33.6159 76.8099C33.5838 76.9546 33.5846 77.1048 33.6184 77.2492C33.6521 77.3936 33.7179 77.5286 33.8109 77.6441C33.9039 77.7597 34.0217 77.8528 34.1555 77.9167C34.2894 77.9805 34.4359 78.0135 34.5842 78.013H59.5131C59.6614 78.0135 59.8079 77.9805 59.9418 77.9167C60.0756 77.8528 60.1934 77.7597 60.2864 77.6441C60.3794 77.5286 60.4452 77.3936 60.4789 77.2492C60.5127 77.1048 60.5135 76.9546 60.4814 76.8099L59.2906 71.3956C59.2047 71.0099 58.9903 70.665 58.6826 70.4172C58.3749 70.1694 57.9921 70.0334 57.5971 70.0317H36.5002Z" fill="#D1D3D4"/>
<path d="M81.8007 0.197754H12.2347C10.7533 0.197754 9.55231 1.39872 9.55231 2.88018V49.2891C9.55231 50.7706 10.7533 51.9715 12.2347 51.9715H81.8007C83.2822 51.9715 84.4831 50.7706 84.4831 49.2891V2.88018C84.4831 1.39872 83.2822 0.197754 81.8007 0.197754Z" fill="#231F20"/>
<path d="M81.7966 52.1776H12.2347C11.4698 52.1776 10.7361 51.8737 10.1952 51.3328C9.65428 50.7919 9.3504 50.0582 9.3504 49.2932V2.88433C9.3504 2.11936 9.65428 1.38572 10.1952 0.844801C10.7361 0.303884 11.4698 0 12.2347 0H81.7966C82.5615 0 83.2952 0.303884 83.8361 0.844801C84.377 1.38572 84.6809 2.11936 84.6809 2.88433V49.2891C84.6814 49.6682 84.6072 50.0438 84.4625 50.3942C84.3178 50.7446 84.1055 51.063 83.8376 51.3313C83.5697 51.5996 83.2515 51.8124 82.9013 51.9576C82.5511 52.1028 82.1757 52.1776 81.7966 52.1776ZM12.2347 0.403806C11.579 0.403806 10.9502 0.664278 10.4866 1.12792C10.0229 1.59156 9.76245 2.2204 9.76245 2.87609V49.2891C9.76245 49.9448 10.0229 50.5736 10.4866 51.0373C10.9502 51.5009 11.579 51.7614 12.2347 51.7614H81.7966C82.4523 51.7614 83.0811 51.5009 83.5447 51.0373C84.0084 50.5736 84.2689 49.9448 84.2689 49.2891V2.88433C84.2689 2.22864 84.0084 1.59981 83.5447 1.13616C83.0811 0.672519 82.4523 0.412047 81.7966 0.412047L12.2347 0.403806Z" fill="#231F20"/>
<path d="M80.4781 3.77026H13.3967V48.3332H80.4781V3.77026Z" fill="#B5ED3D"/>
<path d="M27.7854 40.6856C27.7463 40.6851 27.7083 40.6724 27.6767 40.6495C27.645 40.6265 27.6213 40.5943 27.6086 40.5573C27.596 40.5203 27.5951 40.4803 27.6061 40.4428C27.6171 40.4053 27.6394 40.3721 27.67 40.3477L70.0038 6.72876C70.0428 6.69811 70.0922 6.68396 70.1415 6.68936C70.1908 6.69475 70.236 6.71925 70.2675 6.7576C70.2832 6.77669 70.2949 6.79873 70.302 6.82242C70.309 6.8461 70.3113 6.87096 70.3086 6.89553C70.3059 6.9201 70.2983 6.94388 70.2863 6.96548C70.2743 6.98709 70.2581 7.00607 70.2386 7.02131L27.9008 40.6444C27.8686 40.6717 27.8276 40.6864 27.7854 40.6856Z" fill="white"/>
<path d="M51.132 43.2937C51.1032 43.2941 51.0747 43.2875 51.0489 43.2746C51.0231 43.2617 51.0007 43.2429 50.9837 43.2196C50.9535 43.1801 50.9401 43.1303 50.9462 43.081C50.9524 43.0317 50.9777 42.9867 51.0167 42.9559L76.234 23.5567C76.2536 23.5414 76.2761 23.5303 76.3 23.5239C76.324 23.5174 76.3491 23.5159 76.3737 23.5194C76.3983 23.5228 76.4219 23.5312 76.4432 23.544C76.4645 23.5568 76.4831 23.5737 76.4977 23.5938C76.5274 23.6338 76.5402 23.6839 76.5333 23.7332C76.5263 23.7826 76.5002 23.8272 76.4606 23.8575L51.2474 43.2525C51.2153 43.2799 51.1742 43.2945 51.132 43.2937Z" fill="white"/>
<path d="M26.6688 19.5888C26.639 19.5883 26.6098 19.581 26.5834 19.5674C26.557 19.5539 26.534 19.5344 26.5163 19.5105C26.4866 19.4705 26.4738 19.4204 26.4807 19.371C26.4877 19.3217 26.5138 19.2771 26.5534 19.2468L36.3354 11.8588C36.3548 11.8404 36.3778 11.8263 36.403 11.8174C36.4282 11.8085 36.455 11.8051 36.4816 11.8073C36.5082 11.8095 36.5341 11.8173 36.5575 11.8302C36.5809 11.8431 36.6013 11.8608 36.6174 11.8821C36.6334 11.9035 36.6448 11.928 36.6508 11.954C36.6567 11.98 36.6571 12.0071 36.6518 12.0333C36.6466 12.0594 36.6359 12.0842 36.6204 12.106C36.605 12.1278 36.5851 12.146 36.562 12.1596L26.7965 19.5476C26.7792 19.5628 26.7589 19.5743 26.7369 19.5814C26.7149 19.5885 26.6917 19.591 26.6688 19.5888Z" fill="white"/>
</svg>
