<svg width="74" height="18" viewBox="0 0 74 18" fill="none" xmlns="http://www.w3.org/2000/svg">
<path d="M27.563 4.02539H23.4838C23.3488 4.02531 23.2181 4.07345 23.1154 4.16116C23.0128 4.24886 22.9448 4.37036 22.9237 4.50375L21.2739 14.9639C21.2663 15.0124 21.2694 15.062 21.2828 15.1093C21.2962 15.1565 21.3197 15.2003 21.3517 15.2376C21.3837 15.2749 21.4233 15.3049 21.468 15.3254C21.5126 15.3459 21.5612 15.3564 21.6103 15.3564H23.5578C23.6929 15.3564 23.8236 15.3082 23.9263 15.2204C24.029 15.1325 24.0969 15.0109 24.1178 14.8774L24.5628 12.0561C24.5837 11.9227 24.6515 11.8012 24.7541 11.7134C24.8567 11.6256 24.9873 11.5773 25.1223 11.5772H26.4136C29.1007 11.5772 30.6515 10.2769 31.0565 7.70019C31.239 6.57288 31.0642 5.68713 30.5364 5.06681C29.9566 4.38565 28.9283 4.02539 27.563 4.02539ZM28.0336 7.84572C27.8105 9.30944 26.6922 9.30944 25.6108 9.30944H24.9952L25.4271 6.57586C25.4397 6.49588 25.4805 6.42305 25.542 6.37045C25.6036 6.31786 25.6819 6.28896 25.7629 6.28896H26.045C26.7816 6.28896 27.4765 6.28896 27.8356 6.70887C28.0497 6.95938 28.1153 7.33157 28.0336 7.84572ZM39.7565 7.7986H37.803C37.7221 7.7986 37.6438 7.8275 37.5822 7.8801C37.5206 7.93269 37.4799 8.00553 37.4672 8.0855L37.3807 8.63186L37.2442 8.43383C36.8213 7.82008 35.8783 7.61489 34.937 7.61489C32.7785 7.61489 30.9348 9.24979 30.5757 11.5432C30.389 12.6872 30.6545 13.7811 31.3034 14.544C31.8987 15.2454 32.7504 15.5377 33.7638 15.5377C35.5031 15.5377 36.4676 14.4193 36.4676 14.4193L36.3805 14.9621C36.3727 15.0106 36.3756 15.0603 36.3888 15.1076C36.4021 15.1549 36.4255 15.1988 36.4573 15.2362C36.4892 15.2736 36.5288 15.3037 36.5734 15.3243C36.618 15.345 36.6665 15.3557 36.7157 15.3558H38.4753C38.6104 15.3558 38.7411 15.3076 38.8438 15.2198C38.9465 15.1319 39.0144 15.0103 39.0353 14.8768L40.0911 8.19107C40.0988 8.14265 40.096 8.09312 40.0828 8.04591C40.0695 7.99869 40.0462 7.95491 40.0144 7.91759C39.9825 7.88027 39.943 7.85031 39.8985 7.82976C39.854 7.80922 39.8055 7.79859 39.7565 7.7986ZM37.0336 11.6004C36.8451 12.7164 35.9594 13.4656 34.8297 13.4656C34.2624 13.4656 33.8091 13.2837 33.5181 12.9389C33.2294 12.5965 33.1196 12.1092 33.2115 11.5664C33.3874 10.46 34.2881 9.6864 35.4005 9.6864C35.9552 9.6864 36.4061 9.87071 36.7032 10.2184C37.0008 10.5698 37.1189 11.0601 37.0336 11.6004ZM50.1599 7.7986H48.197C48.1044 7.79875 48.0133 7.82148 47.9315 7.86482C47.8497 7.90817 47.7797 7.97081 47.7276 8.04733L45.0202 12.0353L43.8726 8.203C43.8374 8.08612 43.7655 7.98368 43.6675 7.91085C43.5695 7.83802 43.4507 7.79866 43.3287 7.7986H41.3997C41.3456 7.79846 41.2922 7.81125 41.244 7.83591C41.1957 7.86057 41.1541 7.89639 41.1226 7.94039C41.091 7.98438 41.0704 8.03528 41.0625 8.08884C41.0546 8.1424 41.0595 8.19709 41.077 8.24834L43.2392 14.5935L41.2064 17.4631C41.1703 17.5139 41.1489 17.5738 41.1445 17.636C41.1401 17.6983 41.153 17.7605 41.1816 17.816C41.2103 17.8714 41.2536 17.9179 41.3069 17.9503C41.3602 17.9828 41.4214 17.9999 41.4838 17.9999H43.4444C43.5359 18 43.6261 17.9779 43.7072 17.9355C43.7884 17.8932 43.858 17.8317 43.9102 17.7565L50.4391 8.33244C50.4745 8.28145 50.4952 8.22175 50.4991 8.15981C50.503 8.09786 50.4898 8.03604 50.461 7.98105C50.4323 7.92605 50.389 7.87997 50.3359 7.84781C50.2829 7.81565 50.222 7.79863 50.1599 7.7986Z" fill="#253B80"/>
<path d="M56.659 4.0255H52.5792C52.4443 4.02556 52.3138 4.07377 52.2112 4.16146C52.1086 4.24915 52.0407 4.37057 52.0197 4.50386L50.3699 14.964C50.3622 15.0125 50.3652 15.062 50.3785 15.1092C50.3918 15.1564 50.4152 15.2002 50.447 15.2375C50.4789 15.2748 50.5185 15.3048 50.563 15.3253C50.6076 15.3458 50.6561 15.3565 50.7051 15.3565H52.7987C52.8931 15.3563 52.9844 15.3225 53.0562 15.261C53.1279 15.1996 53.1753 15.1146 53.19 15.0213L53.6582 12.0563C53.6791 11.9228 53.7469 11.8013 53.8495 11.7135C53.9521 11.6257 54.0826 11.5774 54.2177 11.5773H55.5084C58.1961 11.5773 59.7463 10.277 60.1519 7.7003C60.335 6.57298 60.159 5.68724 59.6312 5.06692C59.052 4.38576 58.0243 4.0255 56.659 4.0255ZM57.1296 7.84583C56.9071 9.30955 55.7888 9.30955 54.7068 9.30955H54.0918L54.5243 6.57597C54.5366 6.49599 54.5773 6.42309 54.6388 6.37047C54.7002 6.31784 54.7785 6.28897 54.8595 6.28907H55.1416C55.8776 6.28907 56.5731 6.28907 56.9322 6.70898C57.1463 6.95949 57.2113 7.33168 57.1296 7.84583ZM68.8518 7.79871H66.8996C66.8187 7.79849 66.7403 7.82732 66.6788 7.87997C66.6173 7.93261 66.5767 8.00558 66.5644 8.08561L66.4779 8.63197L66.3407 8.43394C65.9179 7.82018 64.9754 7.615 64.0342 7.615C61.8756 7.615 60.0326 9.2499 59.6735 11.5433C59.4874 12.6873 59.7516 13.7812 60.4006 14.5441C60.997 15.2455 61.8476 15.5378 62.861 15.5378C64.6003 15.5378 65.5647 14.4194 65.5647 14.4194L65.4777 14.9622C65.4699 15.0108 65.4728 15.0606 65.4861 15.108C65.4994 15.1554 65.5229 15.1993 65.5549 15.2368C65.5869 15.2742 65.6267 15.3042 65.6714 15.3248C65.7161 15.3454 65.7648 15.356 65.8141 15.3559H67.573C67.7081 15.3558 67.8386 15.3075 67.9412 15.2197C68.0438 15.1319 68.1116 15.0103 68.1325 14.8769L69.1888 8.19118C69.1963 8.14261 69.1932 8.09299 69.1797 8.04574C69.1662 7.99848 69.1427 7.95471 69.1106 7.91742C69.0786 7.88013 69.0389 7.85022 68.9942 7.82972C68.9496 7.80923 68.901 7.79865 68.8518 7.79871ZM66.129 11.6006C65.9417 12.7165 65.0548 13.4657 63.9251 13.4657C63.359 13.4657 62.9045 13.2838 62.6135 12.939C62.3248 12.5966 62.2162 12.1093 62.3069 11.5666C62.484 10.4601 63.3835 9.68651 64.4959 9.68651C65.0506 9.68651 65.5015 9.87082 65.7986 10.2186C66.0974 10.5699 66.2155 11.0602 66.129 11.6006ZM71.1548 4.3124L69.4805 14.964C69.4728 15.0125 69.4758 15.062 69.4891 15.1092C69.5024 15.1564 69.5258 15.2002 69.5577 15.2375C69.5895 15.2748 69.6291 15.3048 69.6736 15.3253C69.7182 15.3458 69.7667 15.3565 69.8157 15.3565H71.4989C71.7787 15.3565 72.0161 15.1537 72.059 14.8775L73.71 4.41797C73.7177 4.36949 73.7148 4.31992 73.7014 4.27267C73.6881 4.22543 73.6647 4.18162 73.6329 4.14427C73.601 4.10693 73.5615 4.07692 73.5169 4.05631C73.4724 4.0357 73.4239 4.02499 73.3748 4.0249H71.49C71.4091 4.02519 71.3309 4.05428 71.2695 4.10696C71.2081 4.15964 71.1674 4.23247 71.1548 4.3124Z" fill="#179BD7"/>
<path d="M4.33385 17.3893L4.6458 15.4079L3.95093 15.3917H0.632812L2.93873 0.770694C2.9456 0.72602 2.96829 0.685301 3.00267 0.655958C3.03704 0.626616 3.08082 0.610604 3.12602 0.610842H8.72083C10.5782 0.610842 11.86 0.997349 12.5292 1.76022C12.843 2.1181 13.0428 2.49208 13.1394 2.90364C13.2408 3.33548 13.2426 3.85142 13.1436 4.48068L13.1364 4.52661V4.92982L13.4502 5.10756C13.6897 5.22891 13.905 5.39305 14.0854 5.59189C14.3538 5.89787 14.5274 6.28677 14.6007 6.74783C14.6765 7.22202 14.6514 7.78627 14.5274 8.42508C14.3842 9.15992 14.1528 9.79992 13.8403 10.3236C13.5645 10.7928 13.1937 11.1991 12.7517 11.5165C12.3366 11.8112 11.8433 12.0349 11.2856 12.178C10.7452 12.3188 10.1291 12.3898 9.45328 12.3898H9.01786C8.70651 12.3898 8.4041 12.5019 8.16671 12.7029C7.92966 12.9061 7.7724 13.1867 7.72295 13.495L7.69014 13.6733L7.13901 17.1656L7.11396 17.2939C7.1074 17.3344 7.09607 17.3547 7.07936 17.3684C7.06319 17.3816 7.043 17.389 7.0221 17.3893H4.33385Z" fill="#253B80"/>
<path d="M13.7472 4.57324C13.7305 4.68001 13.7114 4.78916 13.6899 4.9013C12.9521 8.68942 10.4279 9.99806 7.20399 9.99806H5.56252C5.16826 9.99806 4.83603 10.2844 4.7746 10.6732L3.93419 16.0032L3.6962 17.5141C3.68672 17.574 3.69034 17.6353 3.70681 17.6937C3.72328 17.7521 3.75221 17.8062 3.7916 17.8523C3.831 17.8985 3.87993 17.9355 3.93502 17.961C3.99012 17.9864 4.05006 17.9996 4.11074 17.9996H7.02206C7.36682 17.9996 7.65968 17.7491 7.71396 17.4091L7.74259 17.2612L8.29074 13.7826L8.32593 13.5917C8.37961 13.2506 8.67307 13 9.01782 13H9.45324C12.2739 13 14.482 11.8548 15.1274 8.5409C15.397 7.15652 15.2574 6.00057 14.544 5.1876C14.3179 4.93611 14.0479 4.72792 13.7472 4.57324Z" fill="#179BD7"/>
<path d="M12.9753 4.26553C12.7398 4.19738 12.5001 4.14419 12.2578 4.10627C11.779 4.0327 11.2952 3.99739 10.8108 4.0007H6.4256C6.25872 4.00057 6.09729 4.06015 5.9705 4.16867C5.84371 4.27719 5.75993 4.42748 5.7343 4.59239L4.80144 10.5009L4.7746 10.6733C4.80366 10.4852 4.89908 10.3137 5.0436 10.1899C5.18812 10.0661 5.3722 9.99802 5.56252 9.99812H7.20398C10.4279 9.99812 12.9521 8.68889 13.6899 4.90136C13.712 4.78922 13.7305 4.68007 13.7472 4.5733C13.5525 4.47121 13.3496 4.38561 13.1406 4.31742C13.0858 4.29924 13.0307 4.28194 12.9753 4.26553Z" fill="#222D65"/>
<path d="M5.73432 4.59215C5.75974 4.4272 5.84347 4.27683 5.97032 4.16837C6.09717 4.05991 6.25872 4.00054 6.42562 4.00106H10.8108C11.3303 4.00106 11.8152 4.03506 12.2578 4.10664C12.5573 4.1537 12.8527 4.2241 13.1412 4.31719C13.3589 4.38936 13.5611 4.47465 13.7478 4.57307C13.9673 3.17317 13.746 2.22003 12.9891 1.35695C12.1546 0.406787 10.6486 0 8.7214 0H3.1266C2.73293 0 2.39712 0.286301 2.33628 0.67579L0.00591076 15.4472C-0.00494373 15.5157 -0.00081397 15.5858 0.018016 15.6527C0.0368459 15.7195 0.0699291 15.7815 0.11499 15.8343C0.160051 15.8871 0.21602 15.9296 0.279047 15.9587C0.342074 15.9878 0.410664 16.003 0.480097 16.0031H3.9342L4.80146 10.5007L5.73432 4.59215Z" fill="#253B80"/>
</svg>
