<svg width="57" height="18" viewBox="0 0 57 18" fill="none" xmlns="http://www.w3.org/2000/svg">
<path d="M24.7667 17.7H20.2394L23.0689 0.310721H27.5967L24.7667 17.7ZM16.4307 0.310721L12.1146 12.2712L11.6039 9.69563L11.6043 9.69656L10.0809 1.87642C10.0809 1.87642 9.89674 0.310721 7.93334 0.310721H0.7979L0.714172 0.605163C0.714172 0.605163 2.8962 1.05915 5.44989 2.59276L9.38322 17.7004H14.1003L21.3032 0.310721H16.4307ZM52.0405 17.7H56.1975L52.5731 0.310257H48.9337C47.2531 0.310257 46.8438 1.60617 46.8438 1.60617L40.0916 17.7H44.8111L45.7549 15.117H51.5102L52.0405 17.7ZM47.0587 11.5488L49.4375 5.04132L50.7757 11.5488H47.0587ZM40.4456 4.49244L41.0917 0.758197C41.0917 0.758197 39.0981 0 37.0198 0C34.7731 0 29.4378 0.981936 29.4378 5.75672C29.4378 10.2492 35.6997 10.305 35.6997 12.6647C35.6997 15.0244 30.083 14.6016 28.2293 13.1136L27.5563 17.0181C27.5563 17.0181 29.5778 18 32.6664 18C35.756 18 40.4168 16.4003 40.4168 12.0465C40.4168 7.52523 34.0986 7.10427 34.0986 5.13854C34.0991 3.17234 38.5083 3.42492 40.4456 4.49244Z" fill="#2566AF"/>
<path d="M11.6043 9.6959L10.0809 1.87576C10.0809 1.87576 9.89674 0.310059 7.93334 0.310059H0.7979L0.714172 0.6045C0.714172 0.6045 4.14374 1.31525 7.4333 3.97825C10.5787 6.52356 11.6043 9.6959 11.6043 9.6959Z" fill="#E6A540"/>
</svg>
